<?xml version="1.0" encoding="UTF-8" standalone="no"?>
<!-- Created with Inkscape (http://www.inkscape.org/) -->

<svg
   width="21mm"
   height="20.997238mm"
   viewBox="0 0 21 20.997238"
   version="1.1"
   id="svg5"
   inkscape:version="1.1.2 (b8e25be8, 2022-02-05)"
   sodipodi:docname="electro_white.svg"
   xmlns:inkscape="http://www.inkscape.org/namespaces/inkscape"
   xmlns:sodipodi="http://sodipodi.sourceforge.net/DTD/sodipodi-0.dtd"
   xmlns="http://www.w3.org/2000/svg"
   xmlns:svg="http://www.w3.org/2000/svg">
  <sodipodi:namedview
     id="namedview7"
     pagecolor="#ffffff"
     bordercolor="#666666"
     borderopacity="1.0"
     inkscape:pageshadow="2"
     inkscape:pageopacity="0.0"
     inkscape:pagecheckerboard="true"
     inkscape:document-units="mm"
     showgrid="false"
     inkscape:zoom="2.0699477"
     inkscape:cx="66.426798"
     inkscape:cy="162.56449"
     inkscape:window-width="1920"
     inkscape:window-height="1027"
     inkscape:window-x="0"
     inkscape:window-y="25"
     inkscape:window-maximized="1"
     inkscape:current-layer="layer1"
     units="mm"
     fit-margin-top="3"
     lock-margins="true"
     fit-margin-left="3"
     fit-margin-right="3"
     fit-margin-bottom="3" />
  <defs
     id="defs2">
    <style
       id="style3080">.cls-1{fill:#9d7198;}</style>
    <style
       id="style1372">.cls-1{fill:#607574;}</style>
    <style
       id="style32349">.cls-1{fill:#895d85;}</style>
    <style
       id="style32481">.cls-1{fill:#c6a275;}</style>
    <style
       id="style32834">.cls-1{fill:#607574;}</style>
    <style
       id="style33189">.cls-1{fill:#895d85;}</style>
    <style
       id="style35855">.cls-1{fill:#607574;}</style>
    <style
       id="style924">.cls-1{fill:#895d85;}</style>
    <style
       id="style36926">.cls-1{fill:#607574;}</style>
    <style
       id="style42902">.cls-1{fill:#607574;}</style>
    <style
       id="style43033">.cls-1{fill:#895d85;}</style>
    <style
       id="style43139">.cls-1{fill:#607574;}</style>
    <style
       id="style43361">.cls-1{fill:#895d85;}</style>
    <style
       id="style43395">.cls-1{fill:#5e455d;}</style>
    <style
       id="style43430">.cls-1{fill:#895d85;}</style>
    <style
       id="style43507">.cls-1{fill:#9d7198;}</style>
    <style
       id="style44538">.cls-1{fill:#607574;}</style>
    <style
       id="style44930">.cls-1{fill:#c6a275;}</style>
    <style
       id="style45103">.cls-1{fill:#c6a275;}</style>
    <style
       id="style45160">.cls-1{fill:#895d85;}</style>
    <style
       id="style45457">.cls-1{fill:#895d85;}</style>
    <style
       id="style924-8">.cls-1{fill:#895d85;}</style>
    <style
       id="style45492">.cls-1{fill:#895d85;}</style>
    <style
       id="style45537">.cls-1{fill:#895d85;}</style>
    <style
       id="style46698">.cls-1{fill:#5e455d;}</style>
    <style
       id="style46933">.cls-1{fill:#895d85;}</style>
    <style
       id="style46954">.cls-1{fill:#c6a275;}</style>
    <style
       id="style924-4">.cls-1{fill:#895d85;}</style>
    <style
       id="style50356">.cls-1{fill:#c6a275;}</style>
    <style
       id="style50380">.cls-1{fill:#c6a275;}.cls-2{fill:#c6a275;}.cls-3{fill:#fff;}</style>
    <style
       id="style824">.cls-1{fill:#c6a275;}.cls-2{fill:#c6a275;}.cls-3{fill:#fff;}</style>
  </defs>
  <g
     inkscape:label="Layer 1"
     inkscape:groupmode="layer"
     id="layer1"
     transform="translate(-30.179986,-120.30381)">
    <path
       style="fill:#ffffff;fill-opacity:1;stroke-width:0.0347222"
       d="m 40.665096,138.30026 c -4.85752,-0.002 -6.84287,-0.0145 -6.92958,-0.0419 -0.0668,-0.0211 -0.20018,-0.11713 -0.29632,-0.21347 -0.10992,-0.11016 -0.19045,-0.2282 -0.21701,-0.31808 -0.0322,-0.10902 -0.0422,-1.22372 -0.0422,-4.70083 0,-3.47711 0.01,-4.59181 0.0422,-4.70083 0.0266,-0.09 0.10689,-0.20759 0.21701,-0.31771 0.11012,-0.11012 0.22766,-0.19041 0.31771,-0.21701 0.0998,-0.0295 0.49533,-0.0422 1.31076,-0.0422 h 1.16785 v -1.86229 c 0,-1.36067 0.0114,-1.90079 0.0422,-2.00521 0.0266,-0.09 0.10689,-0.20759 0.21701,-0.31771 0.11012,-0.11012 0.22766,-0.19041 0.31771,-0.21701 0.10832,-0.032 1.04607,-0.0422 3.87402,-0.0422 3.31932,0 3.74899,0.006 3.89314,0.0552 0.10923,0.0372 0.21093,0.1096 0.31213,0.22216 0.0825,0.0918 0.16867,0.22895 0.19138,0.30472 0.0309,0.10305 0.0413,1.16723 0.0413,4.22229 v 4.08451 h 1.17437 c 0.98234,0 1.20086,0.009 1.3364,0.0552 0.10923,0.0372 0.21093,0.1096 0.31213,0.22216 0.0826,0.0918 0.16867,0.22894 0.19138,0.30472 0.0301,0.10051 0.0413,0.76945 0.0413,2.47347 0,1.70401 -0.0112,2.37295 -0.0413,2.47346 -0.0227,0.0758 -0.10883,0.2129 -0.19138,0.30473 -0.1012,0.11255 -0.2029,0.18493 -0.31213,0.22216 -0.14608,0.0498 -0.83232,0.0549 -6.97008,0.0517 z m -3.48961,-0.552 h 3.26952 l -0.0209,-0.0781 c -0.0115,-0.043 -0.0212,-0.16797 -0.0214,-0.27778 l -5.3e-4,-0.19966 h -2.97027 -2.97033 c -0.0497,-9.1e-4 -0.17058,-0.11971 -0.17046,-0.27777 1.2e-4,-0.15707 0.0853,-0.27242 0.17046,-0.27778 h 2.97033 2.97033 v -1.86229 c 0,-1.36067 0.0114,-1.90079 0.0422,-2.00521 0.0266,-0.09 0.10689,-0.20758 0.21701,-0.31771 0.11012,-0.11012 0.22766,-0.19041 0.3177,-0.21701 0.0786,-0.0232 0.23095,-0.0422 0.33855,-0.0422 h 0.19562 v -0.83333 -0.83334 h -3.88889 -3.88889 v 3.52589 3.52588 c -9.6e-4,0.0788 0.0971,0.16591 0.17046,0.17046 z m 0.43156,-1.67004 c -0.13368,-10e-4 -0.34462,-0.0238 -0.46875,-0.0504 -0.12414,-0.0265 -0.35851,-0.11477 -0.52084,-0.19614 -0.22117,-0.11086 -0.36122,-0.21368 -0.55883,-0.41028 -0.20248,-0.20144 -0.29734,-0.33059 -0.40861,-0.55631 -0.0797,-0.16168 -0.1678,-0.40334 -0.19577,-0.53702 -0.028,-0.13368 -0.0509,-0.34462 -0.0509,-0.46875 0,-0.12413 0.0228,-0.33507 0.0506,-0.46875 0.0278,-0.13368 0.11705,-0.37587 0.19829,-0.5382 0.11108,-0.22193 0.21316,-0.36091 0.41157,-0.56034 0.20672,-0.20778 0.32813,-0.29631 0.56076,-0.40891 0.16331,-0.079 0.40429,-0.16646 0.53552,-0.19427 0.13123,-0.0278 0.34016,-0.0506 0.46429,-0.0506 0.12413,0 0.33306,0.0228 0.46429,0.0506 0.13123,0.0278 0.37221,0.11523 0.53552,0.19427 0.23237,0.11247 0.35515,0.20195 0.56479,0.41159 0.20965,0.20965 0.29913,0.33243 0.4116,0.5648 0.079,0.16331 0.16646,0.40429 0.19427,0.53551 0.0278,0.13124 0.0506,0.34017 0.0506,0.4643 0,0.12413 -0.0228,0.33306 -0.0506,0.46429 -0.0278,0.13123 -0.11546,0.3727 -0.1948,0.5366 -0.11461,0.2368 -0.19993,0.35303 -0.41544,0.56595 -0.20445,0.20199 -0.34225,0.30296 -0.55982,0.41021 -0.15873,0.0782 -0.39798,0.16514 -0.53166,0.19311 -0.13368,0.028 -0.35243,0.0499 -0.48611,0.0487 z m 0.10416,-0.56753 c 0.17679,-0.008 0.35353,-0.0405 0.48611,-0.0901 0.11459,-0.0429 0.29898,-0.14111 0.40976,-0.21824 0.11079,-0.0771 0.26986,-0.23126 0.3535,-0.34253 0.0836,-0.11126 0.18604,-0.29203 0.22755,-0.40171 0.0432,-0.11418 0.0832,-0.31813 0.0935,-0.47719 0.0102,-0.1569 7e-5,-0.36419 -0.0232,-0.47637 -0.0227,-0.10923 -0.0883,-0.29276 -0.14585,-0.40785 -0.0575,-0.11509 -0.19536,-0.30006 -0.30634,-0.41103 -0.11855,-0.11855 -0.29382,-0.24709 -0.42494,-0.31164 -0.12275,-0.0604 -0.33523,-0.12909 -0.47219,-0.15257 -0.18777,-0.0322 -0.31361,-0.0334 -0.51176,-0.005 -0.15829,0.0228 -0.34831,0.08 -0.47792,0.14378 -0.11833,0.0583 -0.28287,0.1639 -0.36564,0.23475 l -0.15049,0.12882 0.16171,0.0779 c 0.0889,0.0429 0.20114,0.11474 0.24935,0.15973 0.0482,0.045 0.12128,0.14429 0.16239,0.22068 0.0673,0.1251 0.0748,0.19233 0.0748,0.67709 0,0.48475 -0.007,0.55198 -0.0748,0.67708 -0.0411,0.0764 -0.11419,0.1757 -0.16239,0.22068 -0.0482,0.045 -0.16042,0.11687 -0.24935,0.15973 l -0.16171,0.0779 0.15049,0.12882 c 0.0828,0.0709 0.24423,0.17494 0.35882,0.2313 0.11458,0.0564 0.27864,0.1172 0.36458,0.13519 0.0859,0.018 0.28125,0.0273 0.43403,0.0206 z m -1.60139,-1.02652 c 0.0214,-1e-4 0.097,-0.0163 0.16808,-0.0361 0.071,-0.0197 0.15308,-0.07 0.18229,-0.1117 0.04,-0.057 0.0531,-0.17169 0.0531,-0.46272 0,-0.33243 -0.01,-0.39914 -0.0684,-0.4739 -0.038,-0.0483 -0.13204,-0.10315 -0.21133,-0.12328 l -0.14289,-0.0363 -0.0546,0.12728 c -0.0359,0.0837 -0.0557,0.24034 -0.0578,0.45713 -0.002,0.18736 0.0176,0.40112 0.0448,0.4948 0.0263,0.0907 0.0654,0.16484 0.0868,0.16474 z m 8.18126,3.26409 h 3.16288 c 0.0918,-0.006 0.1681,-0.0708 0.17045,-0.17046 v -2.32955 -2.32954 c 0.005,-0.0996 -0.0592,-0.16422 -0.17045,-0.17046 h -3.16288 -3.16288 c -0.0958,0.002 -0.17016,0.0824 -0.17046,0.17046 v 2.32954 2.32955 c 2.6e-4,0.10554 0.0844,0.1682 0.17046,0.17046 z m -0.83334,-0.55556 h -1.77399 c -0.0783,-0.002 -0.16625,-0.0902 -0.17045,-0.17046 v -1.77399 -1.77399 c 2.6e-4,-0.0822 0.0922,-0.1682 0.17045,-0.17045 h 1.77399 1.774 c 0.0879,0.006 0.16421,0.0786 0.17045,0.17045 v 1.77399 1.77399 c -0.0101,0.084 -0.0631,0.16422 -0.17045,0.17046 z m 0,-0.55556 h 1.3889 v -1.38889 -1.38889 h -1.38889 -1.3889 v 1.38889 1.38889 z m 3.05556,0 c -0.36258,0 -0.39009,-0.005 -0.47033,-0.0852 -0.0537,-0.0537 -0.0852,-0.1249 -0.0852,-0.19255 0,-0.0677 0.0315,-0.13882 0.0852,-0.19255 0.0802,-0.0802 0.10775,-0.0852 0.47033,-0.0852 0.36258,0 0.39009,0.005 0.47033,0.0852 0.0537,0.0537 0.0852,0.1249 0.0852,0.19255 0,0.0676 -0.0315,0.13883 -0.0852,0.19255 -0.0802,0.0802 -0.10775,0.0852 -0.47033,0.0852 z m 0,-1.11111 c -0.36258,0 -0.39009,-0.005 -0.47033,-0.0852 -0.0537,-0.0537 -0.0852,-0.1249 -0.0852,-0.19255 0,-0.0677 0.0315,-0.13883 0.0852,-0.19255 0.0802,-0.0802 0.10775,-0.0852 0.47033,-0.0852 0.36258,0 0.39009,0.005 0.47033,0.0852 0.0537,0.0537 0.0852,0.1249 0.0852,0.19255 0,0.0676 -0.0315,0.13883 -0.0852,0.19255 -0.0802,0.0802 -0.10775,0.0852 -0.47033,0.0852 z m 0,-1.11111 c -0.36258,0 -0.39009,-0.005 -0.47033,-0.0852 -0.0537,-0.0537 -0.0852,-0.1249 -0.0852,-0.19255 0,-0.0677 0.0315,-0.13883 0.0852,-0.19255 0.0802,-0.0802 0.10775,-0.0852 0.47033,-0.0852 0.36258,0 0.39009,0.005 0.47033,0.0852 0.0537,0.0537 0.0852,0.1249 0.0852,0.19255 0,0.0676 -0.0315,0.13883 -0.0852,0.19255 -0.0802,0.0802 -0.10775,0.0852 -0.47033,0.0852 z m -3.19444,-2.22222 h 1.25 v -1.38889 -1.38889 h -1.25 -1.25001 v 1.38889 1.38889 z m 0.41666,-0.55556 c -0.0676,0 -0.13882,-0.0315 -0.19255,-0.0852 -0.0845,-0.0845 -0.0852,-0.0906 -0.0852,-0.74811 0,-0.6575 6.6e-4,-0.66356 0.0852,-0.7481 0.0537,-0.0537 0.1249,-0.0852 0.19255,-0.0852 0.0677,0 0.13883,0.0315 0.19255,0.0852 0.0845,0.0845 0.0852,0.0906 0.0852,0.7481 0,0.65751 -6.5e-4,0.66358 -0.0852,0.74811 -0.0537,0.0537 -0.1249,0.0852 -0.19255,0.0852 z m -6.11111,-1.66667 h 3.88889 l -0.0107,-1.4919 c 0,0 -0.007,-0.14876 -0.1598,-0.17476 -0.55642,0.004 -3.71843,0 -3.71843,0 h -3.71843 c -0.0873,0.005 -0.14979,0.0577 -0.15705,0.13781 l -0.0134,0.78075 v 0.7481 z m -2.77778,-0.55555 c -0.36258,0 -0.39009,-0.005 -0.47033,-0.0852 -0.0537,-0.0537 -0.0852,-0.1249 -0.0852,-0.19255 0,-0.0677 0.0315,-0.13883 0.0852,-0.19255 0.0802,-0.0802 0.10775,-0.0852 0.47033,-0.0852 0.36258,0 0.39009,0.005 0.47033,0.0852 0.0537,0.0537 0.0852,0.1249 0.0852,0.19255 0,0.0676 -0.0315,0.13883 -0.0852,0.19255 -0.0802,0.0802 -0.10775,0.0852 -0.47033,0.0852 z m 2.77778,0 h -1.49621 c -0.0841,-0.004 -0.17096,-0.15564 -0.17046,-0.27778 5.4e-4,-0.13252 0.0853,-0.27517 0.17046,-0.27778 h 1.49621 1.49621 c 0.0979,9.2e-4 0.17278,0.17476 0.17045,0.27778 -0.003,0.13727 -0.0771,0.27792 -0.17045,0.27778 z m 2.77778,0 c -0.36258,0 -0.39009,-0.005 -0.47033,-0.0852 -0.0537,-0.0537 -0.0852,-0.1249 -0.0852,-0.19255 0,-0.0677 0.0315,-0.13883 0.0852,-0.19255 0.0802,-0.0802 0.10775,-0.0852 0.47033,-0.0852 0.36257,0 0.39008,0.005 0.47032,0.0852 0.0537,0.0537 0.0852,0.1249 0.0852,0.19255 0,0.0676 -0.0315,0.13883 -0.0852,0.19255 -0.0802,0.0802 -0.10775,0.0852 -0.47032,0.0852 z m 2.91667,-0.55556 h 1.24999 v -2.41477 -2.41477 c -0.002,-0.084 -0.0747,-0.16032 -0.17045,-0.17046 h -2.18886 -2.18886 l -0.2601,0.51933 c -0.14305,0.28562 -0.29056,0.53562 -0.3278,0.55555 -0.0435,0.0233 -0.52734,0.0362 -1.3547,0.0362 h -1.28701 v 1.38889 1.38889 h 2.28549 c 1.99794,0 2.30586,0.007 2.44751,0.0552 0.10923,0.0372 0.21092,0.1096 0.31213,0.22216 0.0825,0.0918 0.16867,0.22895 0.19137,0.30472 0.0227,0.0758 0.0413,0.22581 0.0413,0.3334 v 0.19562 z m 0.41666,-1.66666 c -0.0676,0 -0.13882,-0.0315 -0.19255,-0.0852 -0.0845,-0.0845 -0.0852,-0.0906 -0.0852,-0.74811 0,-0.6575 6.6e-4,-0.66357 0.0852,-0.7481 0.0537,-0.0537 0.1249,-0.0852 0.19255,-0.0852 0.0677,0 0.13883,0.0315 0.19255,0.0852 0.0845,0.0845 0.0852,0.0906 0.0852,0.7481 0,0.6575 -6.5e-4,0.66357 -0.0852,0.74811 -0.0537,0.0537 -0.12489,0.0852 -0.19255,0.0852 z m -5.78164,-2.77778 h 1.16281 l 0.13966,-0.27778 0.13966,-0.27778 h -1.21724 -1.21724 l -0.0852,0.0852 c -0.07,0.07 -0.0852,0.11964 -0.0852,0.27778 v 0.19255 z"
       id="path35996-3"
       sodipodi:nodetypes="ssssssssscssssssssscssssssssscccccccscccsssssccccccccccssssssssssssssssssssssscsssssscssssssscssssssscssssssssssscsssscccccccccccccccccccccccccccccccccccssssssssssssssssssssssssssscccccccccssscssscsccccccccccsssssssssccscccsccssssssssscccccccssscccsssssccssscssscsccccccsscc" />
  </g>
</svg>
