<?xml version="1.0" encoding="UTF-8"?>
<svg xmlns="http://www.w3.org/2000/svg" width="41" height="41" viewBox="0 0 41 41" fill="none">
  <path d="M12.578 6.66475C12.3885 6.6747 12.1861 6.69708 12.0448 6.83847C11.6646 7.13605 11.442 7.58775 11.3016 8.04022C11.2119 8.30634 11.1539 8.57804 11.0809 8.85024C10.7978 8.86382 10.5052 8.81588 10.2295 8.89477C9.89453 9.02826 9.87938 9.53572 10.158 9.73422C10.3497 9.85576 10.5922 9.79935 10.8072 9.81406C10.8803 9.83529 11.0382 9.77172 11.0575 9.84686C11.0681 10.5915 11.0265 11.3395 11.1097 12.0787C11.1345 12.2719 11.2073 12.4538 11.2593 12.6405C10.6983 12.8742 10.1693 13.1865 9.71101 13.5871C9.29523 13.9379 8.92387 14.3444 8.61358 14.7912C8.30435 15.2579 8.02963 15.7534 7.87251 16.2936C7.457 17.587 7.11133 18.9071 6.75015 20.2186C6.44633 21.3553 6.12362 22.4873 5.83761 23.6284C5.76195 23.924 5.91037 24.2047 5.95009 24.4917C5.95355 24.742 5.78233 24.9495 5.68879 25.1707C5.63017 25.2851 5.55501 25.3957 5.58173 25.5305C5.58173 28.2301 5.58173 30.9297 5.58173 33.6293C5.69871 33.7663 5.84 33.9168 6.037 33.9054C6.24968 33.9289 6.49697 33.7892 6.49812 33.5554C6.55744 32.8844 6.53855 32.2093 6.55054 31.5364C6.56335 29.5342 6.56983 27.532 6.58014 25.5299C6.7267 25.368 6.90197 25.1957 7.13563 25.1922C7.36007 25.1871 7.59569 25.3078 7.6747 25.5278C7.76298 25.7286 7.76677 25.9724 7.93616 26.1322C8.19669 26.3685 8.71669 26.2036 8.73018 25.8303C8.76688 25.4484 8.59573 25.0873 8.44308 24.7409C8.71147 24.4663 8.9823 24.1672 9.10646 23.7999C9.36076 23.1854 9.57412 22.5543 9.81645 21.9356C9.86881 21.8214 9.91616 21.7357 9.91724 21.9142C9.94345 22.2922 9.92573 22.6736 9.93478 23.0529C9.95797 25.9478 9.95802 28.8429 10.0092 31.7375C10.0256 32.1557 10.0154 32.5741 10.0699 32.9866C10.2098 33.2724 10.431 33.5219 10.7107 33.6782C10.9848 33.8519 11.3116 33.9213 11.6336 33.9017C12.0369 33.8849 12.4433 33.9057 12.8352 33.793C13.1821 33.6621 13.4738 33.4299 13.7295 33.1719C14.0156 33.4561 14.3463 33.7248 14.7446 33.8255C15.1515 33.902 15.5768 33.8993 15.982 33.9C16.3625 33.8996 16.7313 33.7379 17.0178 33.4938C17.2123 33.3007 17.3545 33.0567 17.4625 32.8096C17.487 29.1967 17.5052 25.5833 17.5334 21.9707C17.5482 21.8703 17.5521 21.7084 17.6157 21.8858C17.758 22.1892 17.8521 22.5143 17.9753 22.8264C18.1516 23.2822 18.313 23.747 18.5409 24.1801C18.7236 24.4705 18.9657 24.7142 19.2745 24.8759C19.5928 25.078 19.9742 25.1321 20.3444 25.1344C20.7696 25.1349 21.1991 25.1629 21.6211 25.1005C22.0512 24.9942 22.4554 24.7191 22.647 24.3103C22.909 23.8388 23.0675 23.3199 23.3043 22.8372C23.3862 22.7869 23.3139 22.7556 23.3142 22.6788C23.2945 22.5752 23.4358 22.5084 23.4891 22.607C23.5346 22.6735 23.5021 22.7802 23.4212 22.7999C23.4709 22.9053 23.3985 23.0274 23.3954 23.139C22.9522 25.6032 22.4516 28.0585 22.0328 30.526C21.9678 30.7427 22.0444 31.0071 22.2505 31.118C22.5139 31.1922 22.7941 31.1569 23.0648 31.1684C23.4388 31.1689 23.8128 31.1685 24.1868 31.1687C24.2078 31.7662 24.1989 32.3706 24.2463 32.9609C24.2713 33.2598 24.5195 33.4673 24.7218 33.6604C24.8678 33.8026 25.0677 33.8688 25.2696 33.8647C25.6172 33.8724 25.9852 33.8843 26.3345 33.8456C26.6613 33.7919 26.9323 33.5789 27.1888 33.3831C27.2654 33.3186 27.3418 33.254 27.4184 33.1896C27.7078 33.4369 27.9997 33.6835 28.3567 33.8126C28.6974 33.8986 29.0443 33.864 29.3949 33.8699C29.6183 33.8669 29.8781 33.8694 30.0602 33.7047C30.2553 33.5366 30.4611 33.3536 30.56 33.1101C30.6364 32.7769 30.6094 32.4388 30.6279 32.0973C30.6353 31.7878 30.6425 31.4783 30.65 31.1687C31.2419 31.1608 31.8352 31.1871 32.4261 31.1487C32.6991 31.1485 32.8911 30.8443 32.8115 30.5917C32.4554 28.4618 32.0267 26.3431 31.6421 24.2171C31.5637 23.7533 31.4629 23.2918 31.4085 22.8246C31.4718 22.7471 31.5458 22.8022 31.5751 22.8805C31.8577 23.458 32.005 24.1063 32.3884 24.6315C32.5339 24.8052 32.7136 24.946 32.9098 25.0569C33.0537 25.1893 32.9767 25.4066 32.9761 25.5764C32.9631 25.7509 32.9243 25.9646 33.0796 26.0911C33.2519 26.2865 33.6014 26.2958 33.7824 26.1091C33.9694 25.9031 33.931 25.5937 34.1073 25.382C34.2963 25.1609 34.6615 25.1312 34.8888 25.3121C34.9689 25.383 35.0618 25.4594 35.1154 25.5464C35.1308 27.9544 35.1287 30.3627 35.1584 32.7707C35.1738 33.0773 35.1528 33.3914 35.2276 33.6912C35.3783 33.9751 35.8149 33.9656 36.0143 33.7395C36.1159 33.6835 36.1269 33.5882 36.1136 33.4824C36.1136 30.7845 36.1136 28.0866 36.1136 25.3887C35.9514 25.0721 35.814 24.7251 35.5079 24.5142C35.3588 24.4081 35.2044 24.3098 35.053 24.2071C35.0417 23.8109 35.0933 23.399 34.9685 23.0248C34.7157 22.232 34.3896 21.465 34.0932 20.688C33.6856 19.6584 33.2897 18.6262 32.8512 17.6105C32.5991 17.127 32.2962 16.668 31.9281 16.2732C31.5166 15.8159 31.0302 15.4223 30.4934 15.1123C30.2312 14.9497 29.9504 14.8221 29.6673 14.7011C29.8273 14.3578 29.9994 14.013 30.0509 13.6329C30.1186 13.1742 30.1534 12.6991 30.2482 12.2377C30.3023 11.7996 30.2326 11.3476 30.1033 10.9349C30.0044 10.6315 29.7865 10.3876 29.5683 10.1639C29.4547 10.019 29.6149 9.86252 29.6474 9.71837C29.7779 9.23421 29.8095 8.67433 29.5214 8.23811C29.2644 7.77595 28.7902 7.4803 28.3025 7.30994C27.943 7.21129 27.5752 7.25149 27.2049 7.24284C26.9039 7.2446 26.605 7.24888 26.33 7.39071C25.9765 7.55549 25.6126 7.75732 25.4031 8.09973C25.1481 8.4458 25.0483 8.88815 25.1035 9.31212C25.1221 9.58989 25.2483 9.84047 25.3636 10.0883C25.0535 10.3546 24.7757 10.6882 24.6852 11.0962C24.5687 11.5503 24.5221 12.0328 24.6341 12.4928C24.7452 13.0687 24.7195 13.6616 24.9467 14.2103C25.0163 14.3712 25.0922 14.5294 25.1644 14.6893C24.7399 14.8894 24.3221 15.1055 23.9388 15.3778C23.3859 15.7583 22.8827 16.2212 22.4994 16.7747C22.3007 17.0415 22.128 17.3163 22.0019 17.6153C21.5602 18.5764 21.1945 19.5655 20.7995 20.5478C20.3894 19.0842 20.0269 17.6086 19.5476 16.1655C19.4037 15.7018 19.1454 15.2619 18.8997 14.8658C18.4624 14.2323 17.927 13.6695 17.2911 13.2338C16.9495 12.9964 16.5764 12.8122 16.2027 12.6319C16.2921 12.3607 16.3701 12.0841 16.3774 11.7965C16.4178 11.1419 16.3958 10.4745 16.4016 9.81414C16.6779 9.80009 16.9644 9.84994 17.2328 9.76801C17.5611 9.63373 17.5784 9.13966 17.3105 8.93669C17.1176 8.8059 16.8684 8.86871 16.6493 8.84659C16.5352 8.83902 16.3456 8.84021 16.3337 8.68888C16.2235 8.17985 16.0607 7.68471 15.7856 7.24075C15.5947 6.9745 15.3363 6.71805 14.9948 6.67892C14.6558 6.62402 14.3028 6.68573 14.0023 6.85127C13.8666 6.91201 13.711 6.97037 13.5682 6.89476C13.3452 6.80696 13.1313 6.6829 12.8861 6.66867C12.7837 6.65663 12.6808 6.66044 12.578 6.66475ZM14.8903 7.65868C15.0623 8.04445 15.248 8.4304 15.3202 8.85024C14.2959 8.84459 13.2708 8.86519 12.2471 8.82814C12.1419 8.83398 12.1389 8.75829 12.176 8.67815C12.2771 8.36097 12.3436 8.02144 12.5259 7.73852C12.66 7.60664 12.8581 7.71718 13.0021 7.77335C13.3549 7.92672 13.7621 8.02252 14.1368 7.8892C14.3859 7.81017 14.6242 7.70235 14.8641 7.59942C14.8728 7.61917 14.8816 7.63893 14.8903 7.65868ZM27.4184 8.19584C27.7917 8.20747 28.185 8.30418 28.4729 8.55299C28.6211 8.69366 28.7711 8.87472 28.7397 9.09404C28.7234 9.25581 28.7017 9.44319 28.5776 9.56005C28.4602 9.61466 28.339 9.51947 28.2185 9.51423C27.8169 9.42725 27.4006 9.35938 26.9897 9.44466C26.7712 9.47721 26.5448 9.53311 26.3264 9.57951C26.1703 9.5558 26.1482 9.36326 26.114 9.23706C26.0716 9.04739 26.0938 8.83379 26.2368 8.69009C26.5113 8.33627 26.9901 8.21056 27.4184 8.19584ZM13.7238 9.81406C14.2242 9.82266 14.7287 9.79873 15.2257 9.86691C15.3751 9.88073 15.3634 10.0544 15.3813 10.1653C15.4348 10.7283 15.4651 11.3032 15.3629 11.8623C15.2769 12.2492 15.0652 12.6118 14.7398 12.8445C14.4825 13.0422 14.1628 13.1551 13.8426 13.194C13.4 13.2144 12.9502 13.065 12.6168 12.7721C12.3092 12.4662 12.0603 12.0616 12.0652 11.6147C12.0508 11.0868 12.0446 10.556 12.0956 10.03C12.1133 9.8517 12.3251 9.84139 12.4634 9.83211C12.883 9.80903 13.3037 9.81668 13.7238 9.81406ZM27.4184 10.4649C27.7474 10.4583 28.0885 10.4813 28.3822 10.645C28.6358 10.7794 28.9078 10.921 29.0754 11.1626C29.2102 11.3808 29.2575 11.6462 29.2554 11.899C29.2243 12.0369 29.0576 11.9784 28.9686 11.9379C28.5487 11.7412 28.1894 11.4375 27.7769 11.2295C27.5167 11.1576 27.2183 11.148 26.9727 11.2715C26.5775 11.494 26.2211 11.7875 25.8011 11.964C25.7123 12.0098 25.567 11.9891 25.5772 11.8628C25.5912 11.5193 25.6809 11.1345 25.9855 10.9321C26.3373 10.6714 26.7528 10.4585 27.2015 10.4686C27.2738 10.4653 27.3461 10.4663 27.4184 10.4649ZM27.4238 12.2106C27.5786 12.2338 27.684 12.373 27.8186 12.4436C28.2152 12.7345 28.676 12.915 29.1378 13.0732C29.0746 13.458 29.0043 13.8617 28.7554 14.1761C28.4775 14.5637 28.0095 14.7753 27.5462 14.8342C27.0945 14.8616 26.6317 14.7077 26.295 14.4041C25.9476 14.0781 25.7695 13.6123 25.712 13.1472C25.6572 13.0329 25.8227 13.0472 25.8895 13.0037C26.3491 12.8549 26.7798 12.6279 27.1681 12.3413C27.2491 12.293 27.3219 12.2067 27.4238 12.2106ZM11.7612 13.5422C12.0602 13.5629 12.2753 13.807 12.5394 13.9214C12.8308 14.0855 13.1624 14.1612 13.4893 14.1831C13.8452 14.2115 14.21 14.1798 14.5632 14.0773C14.8728 13.9751 15.1431 13.7906 15.4211 13.6262C15.5584 13.5433 15.7355 13.5067 15.8772 13.601C16.6198 13.9553 17.2891 14.4692 17.8039 15.1127C18.0967 15.4704 18.3372 15.8717 18.5278 16.292C18.8399 17.266 19.1041 18.2549 19.3826 19.2392C19.7897 20.7124 20.2005 22.1856 20.5546 23.6727C20.5783 23.8001 20.6508 23.9588 20.5282 24.059C20.4024 24.2092 20.1906 24.1327 20.0317 24.0925C19.8148 24.0195 19.5941 23.898 19.4673 23.7021C19.1314 22.9932 18.8638 22.2547 18.5797 21.5241C18.1922 20.5042 17.8249 19.4765 17.3833 18.4798C17.2862 18.2741 17.0032 18.2674 16.8138 18.3289C16.6528 18.3883 16.5584 18.5508 16.5625 18.7189C16.5256 19.2241 16.5387 19.7657 16.5332 20.2856C16.5327 21.4018 16.533 22.518 16.5329 23.6343C14.664 23.6343 12.795 23.6343 10.9261 23.6343C10.9261 21.9414 10.9261 20.2486 10.9261 18.5557C10.7943 18.4129 10.6245 18.2792 10.4181 18.2963C10.2444 18.2893 10.0765 18.3984 10.0318 18.57C9.45522 19.8947 8.98984 21.2755 8.45979 22.6246C8.31636 22.9821 8.18895 23.3481 8.01672 23.6932C7.89311 23.8742 7.7125 24.0107 7.50106 24.0714C7.28934 24.1583 6.98499 24.1743 6.83829 23.9667C6.79 23.8499 6.87776 23.7242 6.8905 23.6053C7.47802 21.3952 8.07753 19.188 8.71495 16.9921C8.82685 16.63 8.90863 16.2521 9.11307 15.9272C9.42953 15.3391 9.85882 14.8119 10.3691 14.3814C10.7747 14.0464 11.2197 13.751 11.7071 13.5502C11.7251 13.5483 11.743 13.5416 11.7612 13.5422ZM28.8668 15.4887C29.464 15.7273 30.0759 15.9732 30.5659 16.4016C31.0244 16.7772 31.438 17.216 31.7545 17.7183C32.1013 18.4336 32.3865 19.1767 32.686 19.9125C33.1405 21.0624 33.5925 22.215 33.9901 23.3858C34.0476 23.5297 34.0846 23.693 34.0072 23.8376C33.9289 24.0249 33.7188 24.1208 33.5296 24.1532C33.3873 24.1688 33.217 24.1158 33.1736 23.9638C32.735 23.0187 32.369 22.042 31.9861 21.0734C31.6898 20.3354 31.4074 19.5934 31.066 18.8756C30.9414 18.6745 30.6402 18.6673 30.4478 18.7671C30.2677 18.8758 30.1773 19.1082 30.2464 19.3091C30.3359 19.8278 30.5549 20.3464 30.4456 20.8804C30.3909 21.1992 30.2654 21.5196 30.0097 21.7306C29.7526 21.9485 29.3905 21.9135 29.0759 21.9265C28.9068 21.918 28.7348 21.9868 28.6491 22.1385C28.5394 22.2767 28.5564 22.4666 28.5785 22.6295C28.723 22.9019 29.0683 22.9561 29.3489 22.9545C29.6335 22.958 29.917 22.9196 30.1909 22.8436C30.2662 22.8191 30.3511 22.8416 30.3412 22.9363C30.8104 25.3003 31.2429 27.6718 31.7085 30.0366C31.7343 30.1335 31.7838 30.25 31.6317 30.2048C28.7845 30.2048 25.9374 30.2048 23.0903 30.2048C23.3121 29.1549 23.499 28.0977 23.704 27.0443C23.9743 25.6455 24.2309 24.2438 24.5154 22.8479C24.6919 22.8092 24.8604 22.9235 25.0375 22.9262C25.3707 22.964 25.7308 22.9874 26.0435 22.8461C26.1555 22.7856 26.2523 22.6839 26.2472 22.5481C26.3072 22.2992 26.1535 22.0168 25.9052 21.9476C25.5739 21.8918 25.2064 21.9705 24.9038 21.7887C24.5868 21.552 24.3726 21.1654 24.3864 20.7641C24.3758 20.3401 24.4069 19.9078 24.5539 19.5068C24.5973 19.3113 24.674 19.0888 24.5391 18.9104C24.362 18.706 23.9966 18.6167 23.7944 18.836C23.5634 19.2787 23.3909 19.7515 23.1995 20.2105C22.7269 21.3793 22.3024 22.5672 21.8056 23.7259C21.7741 23.8389 21.6894 23.7736 21.662 23.6982C21.4935 23.2056 21.389 22.6941 21.2569 22.1909C21.825 20.7591 22.3495 19.3086 22.9885 17.9064C23.1728 17.4931 23.4925 17.1609 23.7946 16.8315C24.1612 16.4433 24.5912 16.1159 25.0732 15.8845C25.3547 15.7521 25.6374 15.6013 25.946 15.5468C26.386 15.5681 26.7738 15.8473 27.2201 15.8298C27.6862 15.8286 28.1726 15.7996 28.6004 15.5836C28.6881 15.5593 28.779 15.4771 28.8668 15.4887ZM31.4399 22.5615C31.5682 22.6005 31.5244 22.8295 31.3861 22.7983C31.283 22.7548 31.3064 22.5227 31.4399 22.5615ZM10.9918 24.5981C12.84 24.5981 14.6882 24.5981 16.5364 24.5981C16.5213 26.9469 16.5234 29.2959 16.4936 31.6446C16.4777 31.9642 16.5004 32.2923 16.4166 32.6037C16.3172 32.8118 16.0672 32.8878 15.8561 32.9234C15.4666 32.9535 15.0302 32.9414 14.7184 32.6726C14.5162 32.5022 14.3216 32.2837 14.2725 32.0162C14.2116 31.1729 14.223 30.326 14.213 29.4809C14.2107 28.3488 14.212 27.2167 14.2113 26.0847C14.0805 25.9408 13.9095 25.8087 13.7035 25.825C13.4874 25.8171 13.2759 25.9907 13.2823 26.2153C13.2339 26.8767 13.2553 27.5498 13.2476 28.2165C13.2428 29.4441 13.2574 30.6729 13.197 31.8992C13.1979 32.1771 13.018 32.4188 12.8263 32.6034C12.6268 32.7817 12.3771 32.907 12.1068 32.922C11.8253 32.9529 11.5182 32.9589 11.2622 32.8221C11.1048 32.7183 10.9741 32.5534 10.9805 32.3561C10.9209 31.4217 10.9383 30.4843 10.9285 29.5485C10.9259 27.8984 10.9269 26.2482 10.9261 24.5981C10.948 24.5981 10.9699 24.5981 10.9918 24.5981ZM25.2281 31.1687C25.7975 31.1687 26.3669 31.1687 26.9363 31.1687C26.9317 31.5181 26.9598 31.8901 26.8089 32.2152C26.6164 32.604 26.222 32.8933 25.7857 32.9285C25.5816 32.9697 25.3018 32.9214 25.2204 32.7026C25.1332 32.3663 25.1736 32.013 25.1624 31.6692C25.1624 31.5023 25.1624 31.3355 25.1624 31.1687C25.1843 31.1687 25.2062 31.1687 25.2281 31.1687ZM27.9661 31.1687C28.5355 31.1687 29.1049 31.1687 29.6744 31.1687C29.6647 31.6387 29.698 32.1116 29.6455 32.5796C29.6375 32.7345 29.5331 32.8749 29.3781 32.907C29.1506 32.9708 28.9066 32.9158 28.6865 32.8484C28.286 32.6609 27.9533 32.2756 27.9231 31.8218C27.8921 31.6055 27.9023 31.3865 27.9005 31.1687C27.9224 31.1687 27.9442 31.1687 27.9661 31.1687Z" fill="white"></path>
</svg>
