<?xml version="1.0" encoding="UTF-8"?>
<svg id="Camada_1" data-name="Camada 1" xmlns="http://www.w3.org/2000/svg" viewBox="0 0 708.66 708.66">
  <g>
    <path d="m354.54,27.41l-216.07,433.37c-2.3,4.61,1.05,10.03,6.2,10.03h125.04c10.63,0,20.32-6.08,24.96-15.64l110.05-227.14c12.15-25.08,12.81-54.21,1.79-79.81l-51.97-120.81Z"/>
    <path d="m436.25,190.77l-64.06,132.21c-6.81,14.06-6.81,30.46,0,44.52l42.47,87.67c4.63,9.57,14.33,15.64,24.96,15.64h125.04c5.15,0,8.5-5.42,6.2-10.03l-134.62-270.01Z"/>
  </g>
  <g>
    <g>
      <path d="m192.48,620.66c-3.04,0-5.35-.5-6.93-1.49-1.58-.99-2.37-2.95-2.37-5.87v-17.53c0-2.34-.35-4-1.05-5-.7-.99-2.22-1.49-4.56-1.49h-26.65c-1.75,0-3.22.41-4.38,1.23-1.17.82-2.34,2.46-3.51,4.91l-8.42,18.94c-1.29,2.69-2.78,4.41-4.47,5.17-1.7.76-3.95,1.14-6.75,1.14-1.17,0-2.37-.12-3.59-.35-1.23-.24-2.37-.61-3.42-1.14s-1.93-1.23-2.63-2.1c-.7-.88-1.05-1.9-1.05-3.07,0-1.75.32-3.51.96-5.26.64-1.75,1.43-3.51,2.37-5.26,1.64-3.51,3.68-7.74,6.14-12.71,2.45-4.97,5.08-10.28,7.89-15.96,2.81-5.67,5.7-11.51,8.68-17.53,2.98-6.02,5.93-11.92,8.85-17.71,2.92-5.79,5.7-11.28,8.33-16.48,2.63-5.2,4.94-9.73,6.93-13.59,1.75-3.39,4.38-5.99,7.89-7.8,3.51-1.81,8.12-2.72,13.85-2.72,6.55,0,11.25.85,14.12,2.54,2.86,1.7,4.47,4.76,4.82,9.21.23,5.03.5,10.67.79,16.92.29,6.25.55,12.68.79,19.29.23,6.61.44,13.18.61,19.73.18,6.55.35,12.62.53,18.24.18,5.61.29,10.52.35,14.73.06,4.21.09,7.31.09,9.29,0,4.09-.99,7.07-2.98,8.94-1.99,1.87-5.73,2.81-11.22,2.81Zm-11.75-100.82c-1.05,0-1.87.24-2.45.7-.59.47-1.23,1.4-1.93,2.81-1.4,2.69-3.22,6.4-5.44,11.13-2.22,4.73-4.44,9.5-6.66,14.29-2.22,4.79-4.15,9.09-5.79,12.89-1.64,3.8-2.57,6.11-2.81,6.93-.12.35-.18.76-.18,1.23,0,.94.38,1.52,1.14,1.75.76.24,1.9.35,3.42.35h17.36c1.99,0,3.48-.2,4.47-.61.99-.41,1.55-1.31,1.67-2.72,0-1.99.03-5.08.09-9.29.06-4.21.09-8.62.09-13.24s-.03-9.03-.09-13.24c-.06-4.21-.15-7.36-.26-9.47,0-1.4-.21-2.34-.61-2.81-.41-.47-1.08-.7-2.02-.7Z"/>
      <path d="m357.12,544.74c0,1.4-.09,2.87-.26,4.38-.18,1.52-.38,3.16-.61,4.91l-9.29,59.79c-.47,2.69-1.67,4.5-3.59,5.44-1.93.93-4.53,1.4-7.8,1.4-2.69,0-5.15-.32-7.36-.96-2.22-.64-3.33-2.02-3.33-4.12v-1.05c0-.35.06-.82.18-1.4l8.42-51.9c.35-1.87.61-3.68.79-5.44.18-1.75.26-3.16.26-4.21,0-4.09-1.17-6.81-3.51-8.15-2.34-1.34-6.08-2.02-11.22-2.02-2.46,0-4.3.09-5.52.26-1.23.17-2.31.38-3.24.61-1.52.47-2.54,1.14-3.07,2.02-.53.88-.96,2.19-1.32,3.95l-10.17,65.58c-.47,2.69-1.67,4.5-3.59,5.44-1.93.93-4.53,1.4-7.8,1.4-2.69,0-5.12-.32-7.28-.96-2.16-.64-3.24-2.02-3.24-4.12v-1.05c0-.35.06-.82.18-1.4l9.47-59.62c.23-1.29.41-2.51.53-3.68.12-1.17.18-2.16.18-2.98,0-2.1-.99-3.53-2.98-4.3-1.99-.76-5.55-1.14-10.7-1.14-2.45,0-4.5.09-6.14.26-1.64.17-2.92.38-3.86.61-1.52.47-2.48,1.14-2.89,2.02-.41.88-.79,2.19-1.14,3.95l-10.17,65.58c-.47,2.69-1.7,4.5-3.68,5.44-1.99.93-4.62,1.4-7.89,1.4-2.69,0-5.11-.32-7.28-.96-2.16-.64-3.24-2.02-3.24-4.12v-1.05c0-.35.06-.82.18-1.4l11.75-75.22c.58-3.51,1.34-5.99,2.28-7.45.93-1.46,2.92-2.48,5.96-3.07,4.91-.93,9.64-1.67,14.2-2.19,4.56-.53,8.77-.79,12.62-.79,5.38,0,10.08.29,14.12.88,4.03.59,7.39,1.64,10.08,3.16.35.24.79.44,1.31.61.53.18,1.02.26,1.49.26.58,0,1.34-.18,2.28-.53,4.91-1.75,9.09-2.92,12.54-3.51,3.45-.58,6.87-.88,10.26-.88,10.64,0,18.82,1.49,24.55,4.47,5.73,2.98,8.59,8.27,8.59,15.87Z"/>
      <path d="m417.44,564.9c1.4-.12,2.54-.29,3.42-.53.88-.23,1.64-.64,2.28-1.23.64-.58,1.14-1.4,1.49-2.45.35-1.05.7-2.46,1.05-4.21.23-.93.35-1.81.35-2.63v-2.28c0-1.4-.21-2.75-.61-4.03-.41-1.29-1.14-2.37-2.19-3.24-1.05-.88-2.54-1.58-4.47-2.1-1.93-.53-4.41-.79-7.45-.79-3.86,0-7.66.21-11.4.61-3.74.41-6.96.91-9.64,1.49-1.75.47-3.13.18-4.12-.88-.99-1.05-1.49-2.57-1.49-4.56s.26-3.68.79-5.08,1.61-2.63,3.24-3.68c2.57-1.64,6.22-2.86,10.96-3.68,4.73-.82,10.08-1.23,16.04-1.23,11.34,0,19.55,1.64,24.64,4.91,5.08,3.27,7.63,8.88,7.63,16.83,0,1.29-.06,2.69-.18,4.21-.12,1.52-.29,3.1-.53,4.73l-8.77,54.36c-.7,4.56-4.21,7.66-10.52,9.29-6.31,1.64-14.96,2.46-25.95,2.46-6.2,0-11.37-.41-15.52-1.23-4.15-.82-7.51-2.07-10.08-3.77-2.57-1.69-4.41-3.88-5.52-6.58-1.11-2.69-1.67-5.9-1.67-9.64,0-5.14.67-10.02,2.02-14.64,1.34-4.62,3.59-8.27,6.75-10.96,2.57-2.34,5.9-4.09,9.99-5.26,4.09-1.17,9.06-2.04,14.9-2.63l14.55-1.58Zm4.21,20.69c.12-.58.18-1.29.18-2.1,0-1.99-.67-3.42-2.02-4.3-1.35-.88-3.59-1.32-6.75-1.32h-7.89c-2.92,0-5.32.32-7.19.96-1.87.64-3.33,1.9-4.38,3.77-1.29,2.1-2.19,4.62-2.72,7.54-.53,2.92-.79,5.96-.79,9.12s.96,5.03,2.89,5.96c1.93.94,5.52,1.4,10.78,1.4,3.27,0,5.9-.09,7.89-.26,1.99-.18,3.53-.67,4.65-1.49,1.11-.82,1.93-2.02,2.45-3.59.53-1.58.96-3.71,1.32-6.4l1.58-9.29Z"/>
      <path d="m521.77,531.24c0,1.05-.12,2.19-.35,3.42-.24,1.23-.61,2.37-1.14,3.42-.53,1.05-1.26,1.93-2.19,2.63-.94.7-2.05,1.05-3.33,1.05-1.64,0-2.92-.03-3.86-.09-.94-.06-2.45-.09-4.56-.09-4.44,0-7.42.44-8.94,1.32-1.52.88-2.57,2.89-3.16,6.05l-10.17,64.88c-.47,2.69-1.64,4.5-3.51,5.44-1.87.93-4.5,1.4-7.89,1.4-1.17,0-2.4-.06-3.68-.17-1.29-.12-2.46-.38-3.51-.79-1.05-.41-1.9-.93-2.54-1.58-.64-.64-.96-1.49-.96-2.54,0-.23.03-.55.09-.96.06-.41.15-.9.26-1.49l11.75-75.57c.58-3.16,1.46-5.46,2.63-6.93,1.17-1.46,3.1-2.48,5.79-3.07,4.32-.93,8.91-1.69,13.76-2.28,4.85-.58,9.67-.88,14.47-.88,4.44,0,7.39.47,8.85,1.4,1.46.94,2.19,2.75,2.19,5.44Z"/>
      <path d="m566.13,564.9c1.4-.12,2.54-.29,3.42-.53.88-.23,1.64-.64,2.28-1.23.64-.58,1.14-1.4,1.49-2.45.35-1.05.7-2.46,1.05-4.21.23-.93.35-1.81.35-2.63v-2.28c0-1.4-.21-2.75-.61-4.03-.41-1.29-1.14-2.37-2.19-3.24-1.05-.88-2.54-1.58-4.47-2.1-1.93-.53-4.41-.79-7.45-.79-3.86,0-7.66.21-11.4.61-3.74.41-6.96.91-9.64,1.49-1.75.47-3.13.18-4.12-.88-.99-1.05-1.49-2.57-1.49-4.56s.26-3.68.79-5.08,1.61-2.63,3.24-3.68c2.57-1.64,6.22-2.86,10.96-3.68,4.73-.82,10.08-1.23,16.04-1.23,11.34,0,19.55,1.64,24.64,4.91,5.08,3.27,7.63,8.88,7.63,16.83,0,1.29-.06,2.69-.18,4.21-.12,1.52-.29,3.1-.53,4.73l-8.77,54.36c-.7,4.56-4.21,7.66-10.52,9.29-6.31,1.64-14.96,2.46-25.95,2.46-6.2,0-11.37-.41-15.52-1.23-4.15-.82-7.51-2.07-10.08-3.77-2.57-1.69-4.41-3.88-5.52-6.58-1.11-2.69-1.67-5.9-1.67-9.64,0-5.14.67-10.02,2.02-14.64,1.34-4.62,3.59-8.27,6.75-10.96,2.57-2.34,5.9-4.09,9.99-5.26,4.09-1.17,9.06-2.04,14.9-2.63l14.55-1.58Zm4.21,20.69c.12-.58.18-1.29.18-2.1,0-1.99-.67-3.42-2.02-4.3-1.35-.88-3.59-1.32-6.75-1.32h-7.89c-2.92,0-5.32.32-7.19.96-1.87.64-3.33,1.9-4.38,3.77-1.29,2.1-2.19,4.62-2.72,7.54-.53,2.92-.79,5.96-.79,9.12s.96,5.03,2.89,5.96c1.93.94,5.52,1.4,10.78,1.4,3.27,0,5.9-.09,7.89-.26,1.99-.18,3.53-.67,4.65-1.49,1.11-.82,1.93-2.02,2.45-3.59.53-1.58.96-3.71,1.32-6.4l1.58-9.29Z"/>
    </g>
    <g>
      <path d="m192.48,620.66c-3.04,0-5.35-.5-6.93-1.49-1.58-.99-2.37-2.95-2.37-5.87v-17.53c0-2.34-.35-4-1.05-5-.7-.99-2.22-1.49-4.56-1.49h-26.65c-1.75,0-3.22.41-4.38,1.23-1.17.82-2.34,2.46-3.51,4.91l-8.42,18.94c-1.29,2.69-2.78,4.41-4.47,5.17-1.7.76-3.95,1.14-6.75,1.14-1.17,0-2.37-.12-3.59-.35-1.23-.24-2.37-.61-3.42-1.14s-1.93-1.23-2.63-2.1c-.7-.88-1.05-1.9-1.05-3.07,0-1.75.32-3.51.96-5.26.64-1.75,1.43-3.51,2.37-5.26,1.64-3.51,3.68-7.74,6.14-12.71,2.45-4.97,5.08-10.28,7.89-15.96,2.81-5.67,5.7-11.51,8.68-17.53,2.98-6.02,5.93-11.92,8.85-17.71,2.92-5.79,5.7-11.28,8.33-16.48,2.63-5.2,4.94-9.73,6.93-13.59,1.75-3.39,4.38-5.99,7.89-7.8,3.51-1.81,8.12-2.72,13.85-2.72,6.55,0,11.25.85,14.12,2.54,2.86,1.7,4.47,4.76,4.82,9.21.23,5.03.5,10.67.79,16.92.29,6.25.55,12.68.79,19.29.23,6.61.44,13.18.61,19.73.18,6.55.35,12.62.53,18.24.18,5.61.29,10.52.35,14.73.06,4.21.09,7.31.09,9.29,0,4.09-.99,7.07-2.98,8.94-1.99,1.87-5.73,2.81-11.22,2.81Zm-11.75-100.82c-1.05,0-1.87.24-2.45.7-.59.47-1.23,1.4-1.93,2.81-1.4,2.69-3.22,6.4-5.44,11.13-2.22,4.73-4.44,9.5-6.66,14.29-2.22,4.79-4.15,9.09-5.79,12.89-1.64,3.8-2.57,6.11-2.81,6.93-.12.35-.18.76-.18,1.23,0,.94.38,1.52,1.14,1.75.76.24,1.9.35,3.42.35h17.36c1.99,0,3.48-.2,4.47-.61.99-.41,1.55-1.31,1.67-2.72,0-1.99.03-5.08.09-9.29.06-4.21.09-8.62.09-13.24s-.03-9.03-.09-13.24c-.06-4.21-.15-7.36-.26-9.47,0-1.4-.21-2.34-.61-2.81-.41-.47-1.08-.7-2.02-.7Z"/>
      <path d="m357.12,544.74c0,1.4-.09,2.87-.26,4.38-.18,1.52-.38,3.16-.61,4.91l-9.29,59.79c-.47,2.69-1.67,4.5-3.59,5.44-1.93.93-4.53,1.4-7.8,1.4-2.69,0-5.15-.32-7.36-.96-2.22-.64-3.33-2.02-3.33-4.12v-1.05c0-.35.06-.82.18-1.4l8.42-51.9c.35-1.87.61-3.68.79-5.44.18-1.75.26-3.16.26-4.21,0-4.09-1.17-6.81-3.51-8.15-2.34-1.34-6.08-2.02-11.22-2.02-2.46,0-4.3.09-5.52.26-1.23.17-2.31.38-3.24.61-1.52.47-2.54,1.14-3.07,2.02-.53.88-.96,2.19-1.32,3.95l-10.17,65.58c-.47,2.69-1.67,4.5-3.59,5.44-1.93.93-4.53,1.4-7.8,1.4-2.69,0-5.12-.32-7.28-.96-2.16-.64-3.24-2.02-3.24-4.12v-1.05c0-.35.06-.82.18-1.4l9.47-59.62c.23-1.29.41-2.51.53-3.68.12-1.17.18-2.16.18-2.98,0-2.1-.99-3.53-2.98-4.3-1.99-.76-5.55-1.14-10.7-1.14-2.45,0-4.5.09-6.14.26-1.64.17-2.92.38-3.86.61-1.52.47-2.48,1.14-2.89,2.02-.41.88-.79,2.19-1.14,3.95l-10.17,65.58c-.47,2.69-1.7,4.5-3.68,5.44-1.99.93-4.62,1.4-7.89,1.4-2.69,0-5.11-.32-7.28-.96-2.16-.64-3.24-2.02-3.24-4.12v-1.05c0-.35.06-.82.18-1.4l11.75-75.22c.58-3.51,1.34-5.99,2.28-7.45.93-1.46,2.92-2.48,5.96-3.07,4.91-.93,9.64-1.67,14.2-2.19,4.56-.53,8.77-.79,12.62-.79,5.38,0,10.08.29,14.12.88,4.03.59,7.39,1.64,10.08,3.16.35.24.79.44,1.31.61.53.18,1.02.26,1.49.26.58,0,1.34-.18,2.28-.53,4.91-1.75,9.09-2.92,12.54-3.51,3.45-.58,6.87-.88,10.26-.88,10.64,0,18.82,1.49,24.55,4.47,5.73,2.98,8.59,8.27,8.59,15.87Z"/>
      <path d="m417.44,564.9c1.4-.12,2.54-.29,3.42-.53.88-.23,1.64-.64,2.28-1.23.64-.58,1.14-1.4,1.49-2.45.35-1.05.7-2.46,1.05-4.21.23-.93.35-1.81.35-2.63v-2.28c0-1.4-.21-2.75-.61-4.03-.41-1.29-1.14-2.37-2.19-3.24-1.05-.88-2.54-1.58-4.47-2.1-1.93-.53-4.41-.79-7.45-.79-3.86,0-7.66.21-11.4.61-3.74.41-6.96.91-9.64,1.49-1.75.47-3.13.18-4.12-.88-.99-1.05-1.49-2.57-1.49-4.56s.26-3.68.79-5.08,1.61-2.63,3.24-3.68c2.57-1.64,6.22-2.86,10.96-3.68,4.73-.82,10.08-1.23,16.04-1.23,11.34,0,19.55,1.64,24.64,4.91,5.08,3.27,7.63,8.88,7.63,16.83,0,1.29-.06,2.69-.18,4.21-.12,1.52-.29,3.1-.53,4.73l-8.77,54.36c-.7,4.56-4.21,7.66-10.52,9.29-6.31,1.64-14.96,2.46-25.95,2.46-6.2,0-11.37-.41-15.52-1.23-4.15-.82-7.51-2.07-10.08-3.77-2.57-1.69-4.41-3.88-5.52-6.58-1.11-2.69-1.67-5.9-1.67-9.64,0-5.14.67-10.02,2.02-14.64,1.34-4.62,3.59-8.27,6.75-10.96,2.57-2.34,5.9-4.09,9.99-5.26,4.09-1.17,9.06-2.04,14.9-2.63l14.55-1.58Zm4.21,20.69c.12-.58.18-1.29.18-2.1,0-1.99-.67-3.42-2.02-4.3-1.35-.88-3.59-1.32-6.75-1.32h-7.89c-2.92,0-5.32.32-7.19.96-1.87.64-3.33,1.9-4.38,3.77-1.29,2.1-2.19,4.62-2.72,7.54-.53,2.92-.79,5.96-.79,9.12s.96,5.03,2.89,5.96c1.93.94,5.52,1.4,10.78,1.4,3.27,0,5.9-.09,7.89-.26,1.99-.18,3.53-.67,4.65-1.49,1.11-.82,1.93-2.02,2.45-3.59.53-1.58.96-3.71,1.32-6.4l1.58-9.29Z"/>
      <path d="m521.77,531.24c0,1.05-.12,2.19-.35,3.42-.24,1.23-.61,2.37-1.14,3.42-.53,1.05-1.26,1.93-2.19,2.63-.94.7-2.05,1.05-3.33,1.05-1.64,0-2.92-.03-3.86-.09-.94-.06-2.45-.09-4.56-.09-4.44,0-7.42.44-8.94,1.32-1.52.88-2.57,2.89-3.16,6.05l-10.17,64.88c-.47,2.69-1.64,4.5-3.51,5.44-1.87.93-4.5,1.4-7.89,1.4-1.17,0-2.4-.06-3.68-.17-1.29-.12-2.46-.38-3.51-.79-1.05-.41-1.9-.93-2.54-1.58-.64-.64-.96-1.49-.96-2.54,0-.23.03-.55.09-.96.06-.41.15-.9.26-1.49l11.75-75.57c.58-3.16,1.46-5.46,2.63-6.93,1.17-1.46,3.1-2.48,5.79-3.07,4.32-.93,8.91-1.69,13.76-2.28,4.85-.58,9.67-.88,14.47-.88,4.44,0,7.39.47,8.85,1.4,1.46.94,2.19,2.75,2.19,5.44Z"/>
      <path d="m566.13,564.9c1.4-.12,2.54-.29,3.42-.53.88-.23,1.64-.64,2.28-1.23.64-.58,1.14-1.4,1.49-2.45.35-1.05.7-2.46,1.05-4.21.23-.93.35-1.81.35-2.63v-2.28c0-1.4-.21-2.75-.61-4.03-.41-1.29-1.14-2.37-2.19-3.24-1.05-.88-2.54-1.58-4.47-2.1-1.93-.53-4.41-.79-7.45-.79-3.86,0-7.66.21-11.4.61-3.74.41-6.96.91-9.64,1.49-1.75.47-3.13.18-4.12-.88-.99-1.05-1.49-2.57-1.49-4.56s.26-3.68.79-5.08,1.61-2.63,3.24-3.68c2.57-1.64,6.22-2.86,10.96-3.68,4.73-.82,10.08-1.23,16.04-1.23,11.34,0,19.55,1.64,24.64,4.91,5.08,3.27,7.63,8.88,7.63,16.83,0,1.29-.06,2.69-.18,4.21-.12,1.52-.29,3.1-.53,4.73l-8.77,54.36c-.7,4.56-4.21,7.66-10.52,9.29-6.31,1.64-14.96,2.46-25.95,2.46-6.2,0-11.37-.41-15.52-1.23-4.15-.82-7.51-2.07-10.08-3.77-2.57-1.69-4.41-3.88-5.52-6.58-1.11-2.69-1.67-5.9-1.67-9.64,0-5.14.67-10.02,2.02-14.64,1.34-4.62,3.59-8.27,6.75-10.96,2.57-2.34,5.9-4.09,9.99-5.26,4.09-1.17,9.06-2.04,14.9-2.63l14.55-1.58Zm4.21,20.69c.12-.58.18-1.29.18-2.1,0-1.99-.67-3.42-2.02-4.3-1.35-.88-3.59-1.32-6.75-1.32h-7.89c-2.92,0-5.32.32-7.19.96-1.87.64-3.33,1.9-4.38,3.77-1.29,2.1-2.19,4.62-2.72,7.54-.53,2.92-.79,5.96-.79,9.12s.96,5.03,2.89,5.96c1.93.94,5.52,1.4,10.78,1.4,3.27,0,5.9-.09,7.89-.26,1.99-.18,3.53-.67,4.65-1.49,1.11-.82,1.93-2.02,2.45-3.59.53-1.58.96-3.71,1.32-6.4l1.58-9.29Z"/>
    </g>
    <g>
      <path d="m171.64,652.35c-.54.64-1,1.52-1.39,2.63-.39,1.11-.71,2.29-.96,3.54-.26,1.25-.45,2.47-.58,3.68-.13,1.21-.2,2.21-.2,3.02,0,1.74.35,2.99,1.07,3.74.71.75,1.9,1.13,3.56,1.13.88,0,1.59-.03,2.13-.1.54-.07,1.06-.15,1.57-.26.43-.11.76-.03,1.01.22s.36.64.36,1.15c0,.56-.07,1.08-.2,1.55-.13.47-.42.8-.84.99-1.18.59-2.96.88-5.35.88-3.11,0-5.35-.82-6.71-2.47-1.37-1.65-2.05-3.95-2.05-6.9,0-1.23.09-2.61.28-4.12.19-1.51.49-3.02.9-4.5.42-1.49.96-2.9,1.63-4.22.67-1.33,1.47-2.43,2.41-3.32,1.9-1.74,4.36-2.61,7.36-2.61,1.02,0,1.98.07,2.89.22s1.59.36,2.05.62c.38.27.56.72.56,1.37,0,.27-.03.56-.1.86-.07.31-.17.58-.3.82-.13.24-.31.44-.52.58-.21.15-.46.19-.72.14-1.07-.21-2.25-.32-3.54-.32-1.96,0-3.39.56-4.3,1.69Z"/>
      <path d="m181.65,667.06c0-.91.05-1.92.16-3.01.11-1.1.29-2.19.56-3.28.27-1.08.61-2.13,1.03-3.14.42-1,.93-1.88,1.55-2.63.8-.96,1.8-1.67,2.98-2.13,1.18-.46,2.63-.68,4.34-.68,2.81,0,4.84.63,6.09,1.89,1.25,1.26,1.87,3.15,1.87,5.67,0,.88-.05,1.83-.14,2.83-.09,1-.25,2.02-.46,3.06-.21,1.03-.5,2.03-.84,3-.35.96-.78,1.84-1.29,2.61-.83,1.26-1.87,2.12-3.12,2.57-1.25.46-2.78.68-4.6.68-1.31,0-2.47-.12-3.48-.36-1-.24-1.85-.65-2.53-1.23s-1.21-1.34-1.57-2.29-.54-2.14-.54-3.56Zm11.66,2.05c.32-.56.6-1.25.82-2.07.23-.82.42-1.67.56-2.55.15-.88.26-1.77.34-2.65.08-.88.12-1.67.12-2.37,0-1.42-.28-2.37-.84-2.85-.56-.48-1.41-.72-2.53-.72-.78,0-1.41.12-1.91.34-.5.23-.92.64-1.27,1.23-.32.59-.6,1.29-.84,2.11-.24.82-.44,1.68-.6,2.57-.16.9-.28,1.79-.36,2.67-.08.88-.12,1.68-.12,2.37s.07,1.32.2,1.79c.13.47.33.83.6,1.09.27.25.61.43,1.03.52.42.09.9.14,1.47.14.78,0,1.44-.11,1.99-.34.55-.23,1-.65,1.35-1.27Z"/>
      <path d="m216.75,653.75c0,.24-.03.5-.08.78-.05.28-.14.54-.26.78s-.29.44-.5.6c-.21.16-.47.24-.76.24-.38,0-.67,0-.88-.02-.21-.01-.56-.02-1.05-.02-1.02,0-1.7.1-2.05.3-.35.2-.59.66-.72,1.39l-2.33,14.88c-.11.62-.38,1.03-.8,1.25-.43.21-1.03.32-1.81.32-.27,0-.55-.01-.84-.04-.3-.03-.56-.09-.8-.18s-.44-.21-.58-.36c-.15-.15-.22-.34-.22-.58,0-.05,0-.13.02-.22.01-.09.03-.21.06-.34l2.69-17.33c.13-.72.33-1.25.6-1.59.27-.33.71-.57,1.33-.7.99-.21,2.04-.39,3.16-.52,1.11-.13,2.22-.2,3.32-.2,1.02,0,1.69.11,2.03.32.33.21.5.63.5,1.25Z"/>
      <path d="m230.86,653.75c0,.24-.03.5-.08.78-.05.28-.14.54-.26.78s-.29.44-.5.6c-.21.16-.47.24-.76.24-.38,0-.67,0-.88-.02-.21-.01-.56-.02-1.05-.02-1.02,0-1.7.1-2.05.3-.35.2-.59.66-.72,1.39l-2.33,14.88c-.11.62-.38,1.03-.8,1.25-.43.21-1.03.32-1.81.32-.27,0-.55-.01-.84-.04-.3-.03-.56-.09-.8-.18s-.44-.21-.58-.36c-.15-.15-.22-.34-.22-.58,0-.05,0-.13.02-.22.01-.09.03-.21.06-.34l2.69-17.33c.13-.72.33-1.25.6-1.59.27-.33.71-.57,1.33-.7.99-.21,2.04-.39,3.16-.52,1.11-.13,2.22-.2,3.32-.2,1.02,0,1.69.11,2.03.32.33.21.5.63.5,1.25Z"/>
      <path d="m237.62,665.13c-.38.03-.67.09-.88.2-.21.11-.37.24-.46.4-.09.16-.15.36-.16.6-.01.24-.02.51-.02.8,0,.48.04.93.12,1.35.08.42.26.78.54,1.11.28.32.7.57,1.27.74.56.17,1.31.26,2.25.26.99,0,1.89-.07,2.69-.22s1.47-.29,2.01-.42c.11-.03.24-.04.4-.04.27,0,.5.09.7.28s.3.51.3.96c0,.72-.15,1.3-.46,1.73-.31.43-.76.76-1.37,1s-1.33.4-2.19.48c-.86.08-1.82.12-2.9.12-1.34,0-2.53-.13-3.58-.38-1.04-.25-1.92-.66-2.63-1.23-.71-.56-1.25-1.3-1.61-2.21s-.54-2.02-.54-3.34c0-.62.05-1.45.16-2.49.11-1.04.29-2.24.56-3.58.35-1.71.81-3.16,1.39-4.32.58-1.17,1.27-2.1,2.09-2.79.82-.7,1.76-1.2,2.83-1.51,1.07-.31,2.26-.46,3.58-.46,2.55,0,4.38.5,5.51,1.49,1.13.99,1.69,2.49,1.69,4.5,0,1.18-.12,2.18-.36,3-.24.82-.64,1.49-1.19,2.01-.55.52-1.26.91-2.13,1.17-.87.25-1.94.42-3.2.5l-4.42.28Zm3.66-9.41c-.83.03-1.55.21-2.15.56-.6.35-1.13,1-1.59,1.97-.21.54-.38,1.09-.5,1.65-.12.56-.18,1.05-.18,1.45,0,.46.28.68.84.68h2.93c1.29,0,2.22-.27,2.81-.8.59-.54.88-1.54.88-3.02,0-.83-.2-1.45-.6-1.87-.4-.42-1.22-.62-2.45-.62Z"/>
      <path d="m259.29,657.37c-.38.46-.7,1.07-.98,1.85-.28.78-.52,1.61-.72,2.49s-.35,1.76-.44,2.63c-.09.87-.14,1.63-.14,2.27,0,1.37.27,2.38.8,3.04.54.66,1.53.98,2.98.98.54,0,1.03-.03,1.49-.08.46-.05.86-.12,1.21-.2.32-.08.55,0,.68.24.13.24.2.5.2.76,0,.59-.09,1.1-.26,1.53-.17.43-.41.71-.7.84-.54.3-1.17.5-1.89.6-.72.11-1.43.16-2.13.16-1.18,0-2.24-.11-3.18-.34-.94-.23-1.74-.62-2.39-1.17-.66-.55-1.17-1.3-1.53-2.25-.36-.95-.54-2.15-.54-3.6,0-.91.07-1.94.22-3.1.15-1.15.38-2.3.7-3.44.32-1.14.74-2.24,1.25-3.3.51-1.06,1.13-1.95,1.85-2.67.96-1.02,2.05-1.68,3.26-1.99,1.21-.31,2.47-.46,3.78-.46.54,0,1.11.04,1.71.12.6.08,1.11.23,1.51.44.43.27.64.76.64,1.49,0,.54-.13,1.02-.38,1.47-.25.44-.61.64-1.07.58-.46-.05-.88-.1-1.27-.14-.39-.04-.78-.06-1.19-.06-.8,0-1.49.09-2.05.28-.56.19-1.03.52-1.41,1.01Z"/>
      <path d="m271.19,657.65c.05-.27.08-.47.08-.6,0-.21-.06-.36-.18-.44-.12-.08-.37-.12-.74-.12h-1.69c-.35,0-.59-.11-.72-.34-.13-.23-.2-.49-.2-.78,0-.21.03-.48.08-.78.05-.31.13-.61.24-.9.11-.29.25-.55.44-.76.19-.21.42-.32.68-.32h1.65c.51,0,.82-.07.94-.2s.22-.4.3-.8l.8-4.18c.13-.62.47-1,1-1.17.54-.16,1.09-.24,1.65-.24,1.55,0,2.33.44,2.33,1.33,0,.05,0,.14-.02.26-.01.12-.03.25-.06.38l-.68,3.58c-.03.13-.04.25-.04.36v.24c0,.21.07.34.22.38.15.04.41.06.78.06h1.61c.35,0,.59.11.72.34.13.23.2.49.2.78,0,.21-.02.48-.06.78-.04.31-.11.61-.22.9-.11.3-.24.55-.4.76s-.38.32-.64.32h-1.73c-.43,0-.72.06-.88.18-.16.12-.28.41-.36.86l-1.65,9.97c-.05.24-.1.53-.14.86-.04.34-.06.6-.06.78,0,.64.14,1.07.42,1.27.28.2.77.3,1.47.3h.76c.4,0,.66.09.76.28.11.19.16.43.16.72,0,.54-.08.99-.24,1.37s-.38.64-.64.8c-.21.13-.63.27-1.25.4-.62.13-1.27.2-1.97.2-1.53,0-2.71-.26-3.54-.78-.83-.52-1.25-1.43-1.25-2.71,0-.32.02-.67.06-1.04.04-.38.09-.76.14-1.17l1.85-11.14Z"/>
      <path d="m281.76,667.06c0-.91.05-1.92.16-3.01.11-1.1.29-2.19.56-3.28.27-1.08.61-2.13,1.03-3.14.42-1,.93-1.88,1.55-2.63.8-.96,1.8-1.67,2.98-2.13,1.18-.46,2.63-.68,4.34-.68,2.81,0,4.84.63,6.09,1.89,1.25,1.26,1.87,3.15,1.87,5.67,0,.88-.05,1.83-.14,2.83-.09,1-.25,2.02-.46,3.06-.21,1.03-.5,2.03-.84,3-.35.96-.78,1.84-1.29,2.61-.83,1.26-1.87,2.12-3.12,2.57-1.25.46-2.78.68-4.6.68-1.31,0-2.47-.12-3.48-.36-1-.24-1.85-.65-2.53-1.23s-1.21-1.34-1.57-2.29-.54-2.14-.54-3.56Zm11.66,2.05c.32-.56.6-1.25.82-2.07.23-.82.42-1.67.56-2.55.15-.88.26-1.77.34-2.65.08-.88.12-1.67.12-2.37,0-1.42-.28-2.37-.84-2.85-.56-.48-1.41-.72-2.53-.72-.78,0-1.41.12-1.91.34-.5.23-.92.64-1.27,1.23-.32.59-.6,1.29-.84,2.11-.24.82-.44,1.68-.6,2.57-.16.9-.28,1.79-.36,2.67-.08.88-.12,1.68-.12,2.37s.07,1.32.2,1.79c.13.47.33.83.6,1.09.27.25.61.43,1.03.52.42.09.9.14,1.47.14.78,0,1.44-.11,1.99-.34.55-.23,1-.65,1.35-1.27Z"/>
      <path d="m316.86,653.75c0,.24-.03.5-.08.78-.05.28-.14.54-.26.78s-.29.44-.5.6c-.21.16-.47.24-.76.24-.38,0-.67,0-.88-.02-.21-.01-.56-.02-1.05-.02-1.02,0-1.7.1-2.05.3-.35.2-.59.66-.72,1.39l-2.33,14.88c-.11.62-.38,1.03-.8,1.25-.43.21-1.03.32-1.81.32-.27,0-.55-.01-.84-.04-.3-.03-.56-.09-.8-.18s-.44-.21-.58-.36c-.15-.15-.22-.34-.22-.58,0-.05,0-.13.02-.22.01-.09.03-.21.06-.34l2.69-17.33c.13-.72.33-1.25.6-1.59.27-.33.71-.57,1.33-.7.99-.21,2.04-.39,3.16-.52,1.11-.13,2.22-.2,3.32-.2,1.02,0,1.69.11,2.03.32.33.21.5.63.5,1.25Z"/>
      <path d="m323.61,665.13c-.38.03-.67.09-.88.2-.21.11-.37.24-.46.4-.09.16-.15.36-.16.6-.01.24-.02.51-.02.8,0,.48.04.93.12,1.35.08.42.26.78.54,1.11.28.32.7.57,1.27.74.56.17,1.31.26,2.25.26.99,0,1.89-.07,2.69-.22s1.47-.29,2.01-.42c.11-.03.24-.04.4-.04.27,0,.5.09.7.28s.3.51.3.96c0,.72-.15,1.3-.46,1.73-.31.43-.76.76-1.37,1s-1.33.4-2.19.48c-.86.08-1.82.12-2.9.12-1.34,0-2.53-.13-3.58-.38-1.04-.25-1.92-.66-2.63-1.23-.71-.56-1.25-1.3-1.61-2.21s-.54-2.02-.54-3.34c0-.62.05-1.45.16-2.49.11-1.04.29-2.24.56-3.58.35-1.71.81-3.16,1.39-4.32.58-1.17,1.27-2.1,2.09-2.79.82-.7,1.76-1.2,2.83-1.51,1.07-.31,2.26-.46,3.58-.46,2.55,0,4.38.5,5.51,1.49,1.13.99,1.69,2.49,1.69,4.5,0,1.18-.12,2.18-.36,3-.24.82-.64,1.49-1.19,2.01-.55.52-1.26.91-2.13,1.17-.87.25-1.94.42-3.2.5l-4.42.28Zm3.66-9.41c-.83.03-1.55.21-2.15.56-.6.35-1.13,1-1.59,1.97-.21.54-.38,1.09-.5,1.65-.12.56-.18,1.05-.18,1.45,0,.46.28.68.84.68h2.93c1.29,0,2.22-.27,2.81-.8.59-.54.88-1.54.88-3.02,0-.83-.2-1.45-.6-1.87-.4-.42-1.22-.62-2.45-.62Z"/>
      <path d="m338.49,658.7c0-1.23.21-2.26.64-3.1.43-.83,1-1.5,1.73-2.01.72-.51,1.56-.87,2.51-1.09.95-.21,1.95-.32,3-.32,1.13,0,2.05.05,2.77.16s1.29.25,1.71.44c.42.19.7.42.84.7.15.28.22.58.22.9,0,.62-.13,1.09-.38,1.43-.25.33-.68.5-1.27.5-.72,0-1.35-.03-1.87-.08-.52-.05-1.08-.08-1.67-.08-.88,0-1.63.18-2.23.54-.6.36-.9.89-.9,1.59,0,.54.24,1.07.72,1.61.48.54,1.29,1.23,2.41,2.09,1.29.96,2.2,1.9,2.73,2.79.54.9.8,1.91.8,3.04,0,1.31-.25,2.4-.74,3.26-.5.86-1.15,1.54-1.95,2.05-.8.51-1.72.86-2.73,1.07-1.02.2-2.05.3-3.1.3-.7,0-1.37-.02-2.03-.06-.66-.04-1.24-.13-1.75-.28-.51-.15-.91-.37-1.21-.66-.3-.29-.44-.71-.44-1.25,0-.48.11-.92.32-1.33.21-.4.6-.6,1.17-.6s1.19.04,1.79.12c.6.08,1.28.12,2.03.12.35,0,.73-.03,1.15-.1.42-.07.79-.19,1.13-.38.33-.19.62-.43.84-.72.23-.29.34-.68.34-1.17,0-.54-.21-1.09-.64-1.67s-1.23-1.33-2.41-2.27c-.62-.54-1.15-1.03-1.59-1.47-.44-.44-.8-.87-1.09-1.29-.28-.42-.5-.85-.64-1.31-.15-.46-.22-.95-.22-1.49Z"/>
      <path d="m377.21,646.88c.11-.86.36-1.46.76-1.81.4-.35,1.07-.52,2.01-.52.27,0,.54.01.82.04.28.03.54.09.78.18.24.09.44.22.58.38.15.16.22.36.22.6v.18c0,.07-.01.15-.04.26l-4.06,25.65c-.16,1.02-.93,1.71-2.31,2.09-1.38.38-3.33.56-5.85.56-1.45,0-2.68-.12-3.7-.36-1.02-.24-1.84-.63-2.47-1.17-.63-.54-1.09-1.25-1.37-2.13-.28-.88-.42-1.97-.42-3.26,0-.83.07-1.88.22-3.16.15-1.27.38-2.57.7-3.88.32-1.31.74-2.55,1.27-3.72.52-1.17,1.16-2.04,1.91-2.63.78-.62,1.78-1.07,3.02-1.35,1.23-.28,2.8-.42,4.7-.42.51,0,.92-.02,1.25-.06s.57-.12.74-.24c.17-.12.29-.27.36-.44.07-.17.13-.41.18-.7l.68-4.1Zm-1.93,12.42c.05-.38.1-.72.14-1.03.04-.31.06-.57.06-.78,0-.7-.18-1.14-.54-1.33s-.96-.28-1.79-.28-1.58.09-2.17.26c-.59.17-1.06.49-1.41.95-.38.48-.71,1.17-1,2.07-.3.9-.54,1.84-.72,2.83-.19.99-.33,1.97-.42,2.93-.09.97-.14,1.77-.14,2.41,0,1.37.27,2.28.8,2.73.54.46,1.38.68,2.53.68.64,0,1.16-.04,1.55-.12.39-.08.69-.22.9-.42.21-.2.38-.47.48-.8.11-.33.2-.76.28-1.27l1.45-8.84Z"/>
      <path d="m390.87,665.13c-.38.03-.67.09-.88.2-.21.11-.37.24-.46.4-.09.16-.15.36-.16.6-.01.24-.02.51-.02.8,0,.48.04.93.12,1.35.08.42.26.78.54,1.11.28.32.7.57,1.27.74.56.17,1.31.26,2.25.26.99,0,1.89-.07,2.69-.22s1.47-.29,2.01-.42c.11-.03.24-.04.4-.04.27,0,.5.09.7.28s.3.51.3.96c0,.72-.15,1.3-.46,1.73-.31.43-.76.76-1.37,1s-1.33.4-2.19.48c-.86.08-1.82.12-2.9.12-1.34,0-2.53-.13-3.58-.38-1.04-.25-1.92-.66-2.63-1.23-.71-.56-1.25-1.3-1.61-2.21s-.54-2.02-.54-3.34c0-.62.05-1.45.16-2.49.11-1.04.29-2.24.56-3.58.35-1.71.81-3.16,1.39-4.32.58-1.17,1.27-2.1,2.09-2.79.82-.7,1.76-1.2,2.83-1.51,1.07-.31,2.26-.46,3.58-.46,2.55,0,4.38.5,5.51,1.49,1.13.99,1.69,2.49,1.69,4.5,0,1.18-.12,2.18-.36,3-.24.82-.64,1.49-1.19,2.01-.55.52-1.26.91-2.13,1.17-.87.25-1.94.42-3.2.5l-4.42.28Zm3.66-9.41c-.83.03-1.55.21-2.15.56-.6.35-1.13,1-1.59,1.97-.21.54-.38,1.09-.5,1.65-.12.56-.18,1.05-.18,1.45,0,.46.28.68.84.68h2.93c1.29,0,2.22-.27,2.81-.8.59-.54.88-1.54.88-3.02,0-.83-.2-1.45-.6-1.87-.4-.42-1.22-.62-2.45-.62Z"/>
      <path d="m414.39,654.24c0-1.37.23-2.55.68-3.54.46-.99,1.1-1.81,1.93-2.45.83-.64,1.82-1.12,2.96-1.43,1.14-.31,2.39-.46,3.76-.46,1.05,0,1.98.06,2.81.18.83.12,1.49.29,1.97.5.38.19.62.42.74.68.12.27.18.59.18.96,0,.59-.16,1.13-.48,1.61-.32.48-.83.68-1.53.6-.59-.05-1.15-.1-1.67-.14-.52-.04-1.16-.06-1.91-.06-1.15,0-2.11.23-2.87.68-.76.46-1.15,1.26-1.15,2.41,0,.46.07.87.22,1.25.15.38.38.76.7,1.17.32.4.73.83,1.23,1.29.5.46,1.09,1,1.79,1.65.75.67,1.39,1.3,1.91,1.89.52.59.94,1.17,1.27,1.73.32.56.56,1.13.7,1.71.15.58.22,1.19.22,1.83,0,1.45-.24,2.69-.72,3.74-.48,1.04-1.17,1.9-2.05,2.55-.88.66-1.94,1.14-3.16,1.45-1.22.31-2.57.46-4.04.46-.94,0-1.84-.06-2.71-.18-.87-.12-1.57-.29-2.11-.5-.7-.32-1.05-.9-1.05-1.73,0-.24.03-.51.08-.8.05-.29.15-.56.28-.8.13-.24.31-.44.52-.58.21-.15.5-.19.84-.14.64.11,1.34.19,2.09.26.75.07,1.47.1,2.17.1.64,0,1.23-.05,1.77-.16.54-.11,1-.29,1.39-.56.39-.27.69-.62.9-1.07.21-.44.32-1,.32-1.67,0-.43-.07-.83-.2-1.21-.13-.38-.36-.76-.66-1.17-.31-.4-.71-.85-1.21-1.35-.5-.5-1.12-1.07-1.87-1.71s-1.38-1.25-1.89-1.81c-.51-.56-.92-1.12-1.25-1.69-.32-.56-.56-1.12-.7-1.69-.15-.56-.22-1.17-.22-1.81Z"/>
      <path d="m438.07,665.13c-.38.03-.67.09-.88.2-.21.11-.37.24-.46.4-.09.16-.15.36-.16.6-.01.24-.02.51-.02.8,0,.48.04.93.12,1.35.08.42.26.78.54,1.11.28.32.7.57,1.27.74.56.17,1.31.26,2.25.26.99,0,1.89-.07,2.69-.22s1.47-.29,2.01-.42c.11-.03.24-.04.4-.04.27,0,.5.09.7.28s.3.51.3.96c0,.72-.15,1.3-.46,1.73-.31.43-.76.76-1.37,1s-1.33.4-2.19.48c-.86.08-1.82.12-2.9.12-1.34,0-2.53-.13-3.58-.38-1.04-.25-1.92-.66-2.63-1.23-.71-.56-1.25-1.3-1.61-2.21s-.54-2.02-.54-3.34c0-.62.05-1.45.16-2.49.11-1.04.29-2.24.56-3.58.35-1.71.81-3.16,1.39-4.32.58-1.17,1.27-2.1,2.09-2.79.82-.7,1.76-1.2,2.83-1.51,1.07-.31,2.26-.46,3.58-.46,2.55,0,4.38.5,5.51,1.49,1.13.99,1.69,2.49,1.69,4.5,0,1.18-.12,2.18-.36,3-.24.82-.64,1.49-1.19,2.01-.55.52-1.26.91-2.13,1.17-.87.25-1.94.42-3.2.5l-4.42.28Zm3.66-9.41c-.83.03-1.55.21-2.15.56-.6.35-1.13,1-1.59,1.97-.21.54-.38,1.09-.5,1.65-.12.56-.18,1.05-.18,1.45,0,.46.28.68.84.68h2.93c1.29,0,2.22-.27,2.81-.8.59-.54.88-1.54.88-3.02,0-.83-.2-1.45-.6-1.87-.4-.42-1.22-.62-2.45-.62Z"/>
      <path d="m462.48,674.82c.11-.29.19-.62.24-.99.05-.36.08-.61.08-.74,0-.24-.07-.4-.22-.46-.15-.07-.44-.1-.86-.1-.3,0-.66.03-1.11.08-.44.05-1.05.08-1.83.08-2.36,0-4.08-.42-5.17-1.27-1.09-.84-1.63-2.35-1.63-4.52,0-.88.07-1.9.22-3.04.15-1.14.38-2.29.68-3.44.31-1.15.71-2.25,1.21-3.28.5-1.03,1.09-1.9,1.79-2.59.88-.88,1.98-1.5,3.28-1.85,1.3-.35,2.9-.52,4.8-.52,1.26,0,2.32.03,3.2.08.87.05,1.58.16,2.13.3.55.15.94.35,1.19.6s.36.58.36.98v.26c0,.09-.01.21-.04.34l-2.85,17.89-.36,2.01c-.32,1.55-.83,2.77-1.53,3.64-.7.87-1.52,1.53-2.47,1.97-.95.44-2,.72-3.16.82-1.15.11-2.35.16-3.58.16-.75,0-1.49-.02-2.23-.06-.74-.04-1.39-.13-1.97-.28-.58-.15-1.05-.36-1.41-.64-.36-.28-.54-.66-.54-1.15,0-.54.11-1.03.34-1.49.23-.46.62-.66,1.19-.6.88.11,1.7.19,2.45.24.75.05,1.49.08,2.21.08,1.8,0,3.11-.18,3.94-.54.83-.36,1.38-1.03,1.65-1.99Zm2.73-16.52c.03-.19.05-.38.08-.58.03-.2.04-.37.04-.5,0-.59-.19-.98-.58-1.17s-1.04-.28-1.95-.28c-.54,0-1.03.04-1.47.12-.44.08-.82.23-1.15.44-.51.38-.95.96-1.33,1.77-.38.8-.69,1.69-.94,2.65-.25.96-.45,1.95-.58,2.96-.13,1-.2,1.9-.2,2.67,0,1.1.23,1.86.68,2.29.46.43,1.25.64,2.37.64.67,0,1.23-.05,1.67-.16.44-.11.8-.29,1.07-.54.27-.25.48-.59.62-1,.15-.42.27-.93.38-1.55l1.29-7.76Z"/>
      <path d="m490.5,671.44c-.13.78-.3,1.34-.5,1.69-.2.35-.64.59-1.31.72-.91.21-1.91.38-3,.48-1.09.11-2.23.16-3.44.16-1.58,0-2.87-.12-3.88-.36-1.01-.24-1.8-.6-2.37-1.07-.58-.47-.98-1.03-1.21-1.67-.23-.64-.34-1.37-.34-2.17,0-.32.02-.68.06-1.09.04-.4.09-.79.14-1.17l2.01-12.99c.11-.62.4-1.03.86-1.25.47-.21,1.08-.32,1.83-.32.62,0,1.17.07,1.65.22.48.15.72.48.72.99v.2c0,.08-.01.19-.04.32l-1.93,12.06c-.05.38-.1.76-.14,1.15-.04.39-.06.7-.06.95,0,.99.24,1.63.72,1.91s1.29.42,2.41.42c.62,0,1.12-.01,1.51-.04.39-.03.69-.09.9-.2.21-.11.38-.26.48-.46.11-.2.19-.48.24-.82l2.37-15.12c.11-.62.39-1.03.84-1.25.46-.21,1.06-.32,1.81-.32.64,0,1.21.07,1.69.22.48.15.72.48.72.99v.2c0,.08-.01.19-.04.32l-2.73,17.29Z"/>
      <path d="m510.08,653.75c0,.24-.03.5-.08.78-.05.28-.14.54-.26.78s-.29.44-.5.6c-.21.16-.47.24-.76.24-.38,0-.67,0-.88-.02-.21-.01-.56-.02-1.05-.02-1.02,0-1.7.1-2.05.3-.35.2-.59.66-.72,1.39l-2.33,14.88c-.11.62-.38,1.03-.8,1.25-.43.21-1.03.32-1.81.32-.27,0-.55-.01-.84-.04-.3-.03-.56-.09-.8-.18s-.44-.21-.58-.36c-.15-.15-.22-.34-.22-.58,0-.05,0-.13.02-.22.01-.09.03-.21.06-.34l2.69-17.33c.13-.72.33-1.25.6-1.59.27-.33.71-.57,1.33-.7.99-.21,2.04-.39,3.16-.52,1.11-.13,2.22-.2,3.32-.2,1.02,0,1.69.11,2.03.32.33.21.5.63.5,1.25Z"/>
      <path d="m510.32,667.06c0-.91.05-1.92.16-3.01.11-1.1.29-2.19.56-3.28.27-1.08.61-2.13,1.03-3.14.42-1,.93-1.88,1.55-2.63.8-.96,1.8-1.67,2.98-2.13,1.18-.46,2.63-.68,4.34-.68,2.81,0,4.84.63,6.09,1.89,1.25,1.26,1.87,3.15,1.87,5.67,0,.88-.05,1.83-.14,2.83-.09,1-.25,2.02-.46,3.06-.21,1.03-.5,2.03-.84,3-.35.96-.78,1.84-1.29,2.61-.83,1.26-1.87,2.12-3.12,2.57-1.25.46-2.78.68-4.6.68-1.31,0-2.47-.12-3.48-.36-1-.24-1.85-.65-2.53-1.23s-1.21-1.34-1.57-2.29-.54-2.14-.54-3.56Zm11.66,2.05c.32-.56.6-1.25.82-2.07.23-.82.42-1.67.56-2.55.15-.88.26-1.77.34-2.65.08-.88.12-1.67.12-2.37,0-1.42-.28-2.37-.84-2.85-.56-.48-1.41-.72-2.53-.72-.78,0-1.41.12-1.91.34-.5.23-.92.64-1.27,1.23-.32.59-.6,1.29-.84,2.11-.24.82-.44,1.68-.6,2.57-.16.9-.28,1.79-.36,2.67-.08.88-.12,1.68-.12,2.37s.07,1.32.2,1.79c.13.47.33.83.6,1.09.27.25.61.43,1.03.52.42.09.9.14,1.47.14.78,0,1.44-.11,1.99-.34.55-.23,1-.65,1.35-1.27Z"/>
      <path d="m532.87,658.7c0-1.23.21-2.26.64-3.1.43-.83,1-1.5,1.73-2.01.72-.51,1.56-.87,2.51-1.09.95-.21,1.95-.32,3-.32,1.13,0,2.05.05,2.77.16s1.29.25,1.71.44c.42.19.7.42.84.7.15.28.22.58.22.9,0,.62-.13,1.09-.38,1.43-.25.33-.68.5-1.27.5-.72,0-1.35-.03-1.87-.08-.52-.05-1.08-.08-1.67-.08-.88,0-1.63.18-2.23.54-.6.36-.9.89-.9,1.59,0,.54.24,1.07.72,1.61.48.54,1.29,1.23,2.41,2.09,1.29.96,2.2,1.9,2.73,2.79.54.9.8,1.91.8,3.04,0,1.31-.25,2.4-.74,3.26-.5.86-1.15,1.54-1.95,2.05-.8.51-1.72.86-2.73,1.07-1.02.2-2.05.3-3.1.3-.7,0-1.37-.02-2.03-.06-.66-.04-1.24-.13-1.75-.28-.51-.15-.91-.37-1.21-.66-.3-.29-.44-.71-.44-1.25,0-.48.11-.92.32-1.33.21-.4.6-.6,1.17-.6s1.19.04,1.79.12c.6.08,1.28.12,2.03.12.35,0,.73-.03,1.15-.1.42-.07.79-.19,1.13-.38.33-.19.62-.43.84-.72.23-.29.34-.68.34-1.17,0-.54-.21-1.09-.64-1.67s-1.23-1.33-2.41-2.27c-.62-.54-1.15-1.03-1.59-1.47-.44-.44-.8-.87-1.09-1.29-.28-.42-.5-.85-.64-1.31-.15-.46-.22-.95-.22-1.49Z"/>
    </g>
  </g>
</svg>