<?xml version="1.0" encoding="UTF-8"?>
<svg id="Camada_1" data-name="Camada 1" xmlns="http://www.w3.org/2000/svg" xmlns:xlink="http://www.w3.org/1999/xlink" viewBox="0 0 1322.72 495.6">
  <defs>
    <style>
      .cls-1 {
        fill: url(#Gradiente_sem_nome_18-2);
      }

      .cls-2 {
        fill: url(#Gradiente_sem_nome_18);
      }

      .cls-3 {
        fill: url(#Gradiente_sem_nome_18-4);
      }

      .cls-4, .cls-5, .cls-6 {
        opacity: .58;
      }

      .cls-5 {
        fill: url(#Gradiente_sem_nome_13);
      }

      .cls-7 {
        fill: #4c80d3;
      }

      .cls-8 {
        fill: url(#Gradiente_sem_nome_18-5);
      }

      .cls-6 {
        fill: url(#Gradiente_sem_nome_14);
      }

      .cls-9 {
        fill: url(#Gradiente_sem_nome_18-3);
      }
    </style>
    <linearGradient id="Gradiente_sem_nome_13" data-name="Gradiente sem nome 13" x1="130.57" y1="313.73" x2="310.95" y2="186.04" gradientUnits="userSpaceOnUse">
      <stop offset="0" stop-color="#1c3a66"/>
      <stop offset="1" stop-color="#29235c" stop-opacity="0"/>
    </linearGradient>
    <linearGradient id="Gradiente_sem_nome_14" data-name="Gradiente sem nome 14" x1="272.86" y1="295.98" x2="450.68" y2="353.76" gradientUnits="userSpaceOnUse">
      <stop offset="0" stop-color="#29235c" stop-opacity="0"/>
      <stop offset="1" stop-color="#1c3a66"/>
    </linearGradient>
    <linearGradient id="Gradiente_sem_nome_18" data-name="Gradiente sem nome 18" x1="536.72" y1="303.13" x2="536.72" y2="104.71" gradientUnits="userSpaceOnUse">
      <stop offset="0" stop-color="#1c3a66"/>
      <stop offset=".16" stop-color="#1d3865" stop-opacity=".92"/>
      <stop offset=".42" stop-color="#1f3362" stop-opacity=".7"/>
      <stop offset=".74" stop-color="#242a5f" stop-opacity=".34"/>
      <stop offset="1" stop-color="#29235c" stop-opacity="0"/>
    </linearGradient>
    <linearGradient id="Gradiente_sem_nome_18-2" data-name="Gradiente sem nome 18" x1="750.87" x2="750.87" y2="146.16" xlink:href="#Gradiente_sem_nome_18"/>
    <linearGradient id="Gradiente_sem_nome_18-3" data-name="Gradiente sem nome 18" x1="942.58" y1="303.99" x2="942.58" y2="146.16" xlink:href="#Gradiente_sem_nome_18"/>
    <linearGradient id="Gradiente_sem_nome_18-4" data-name="Gradiente sem nome 18" x1="1078.39" x2="1078.39" y2="146.16" xlink:href="#Gradiente_sem_nome_18"/>
    <linearGradient id="Gradiente_sem_nome_18-5" data-name="Gradiente sem nome 18" x1="1185.04" y1="303.99" x2="1185.04" y2="146.16" xlink:href="#Gradiente_sem_nome_18"/>
  </defs>
  <g>
    <path class="cls-7" d="m256.11,69.23L83.47,415.47c-1.84,3.68.84,8.01,4.96,8.01h99.9c8.49,0,16.24-4.85,19.94-12.5l87.93-181.47c9.71-20.04,10.23-43.31,1.43-63.77l-41.53-96.52Z"/>
    <path class="cls-5" d="m256.11,69.23L83.47,415.47c-1.84,3.68.84,8.01,4.96,8.01h99.9c8.49,0,16.24-4.85,19.94-12.5l87.93-181.47c9.71-20.04,10.23-43.31,1.43-63.77l-41.53-96.52Z"/>
    <path class="cls-7" d="m321.39,199.75l-51.18,105.63c-5.44,11.23-5.44,24.34,0,35.57l33.94,70.04c3.7,7.64,11.45,12.5,19.94,12.5h99.9c4.12,0,6.79-4.33,4.96-8.01l-107.56-215.73Z"/>
    <path class="cls-6" d="m321.39,199.75l-51.18,105.63c-5.44,11.23-5.44,24.34,0,35.57l33.94,70.04c3.7,7.64,11.45,12.5,19.94,12.5h99.9c4.12,0,6.79-4.33,4.96-8.01l-107.56-215.73Z"/>
  </g>
  <g>
    <g>
      <path class="cls-7" d="m590.18,303.13c-4.96,0-8.72-.81-11.29-2.43-2.57-1.62-3.86-4.81-3.86-9.58v-28.59c0-3.81-.57-6.53-1.72-8.15-1.14-1.62-3.62-2.43-7.43-2.43h-43.46c-2.86,0-5.24.67-7.15,2-1.91,1.34-3.82,4-5.72,8.01l-13.72,30.88c-2.1,4.39-4.53,7.2-7.29,8.44-2.77,1.24-6.43,1.86-11.01,1.86-1.91,0-3.86-.19-5.86-.57-2-.38-3.86-1-5.58-1.86s-3.15-2-4.29-3.43c-1.14-1.43-1.72-3.1-1.72-5,0-2.86.53-5.72,1.57-8.58,1.05-2.86,2.34-5.72,3.86-8.58,2.67-5.72,6-12.62,10.01-20.73,4-8.1,8.29-16.77,12.87-26.02,4.58-9.24,9.29-18.77,14.15-28.59,4.86-9.82,9.67-19.44,14.44-28.88,4.76-9.44,9.29-18.39,13.58-26.88,4.29-8.48,8.05-15.87,11.29-22.16,2.86-5.53,7.15-9.77,12.87-12.72,5.72-2.95,13.25-4.43,22.59-4.43,10.67,0,18.34,1.38,23.02,4.15,4.67,2.77,7.29,7.77,7.86,15.01.38,8.2.81,17.4,1.29,27.59.47,10.2.9,20.68,1.29,31.45.38,10.77.71,21.49,1,32.17.29,10.68.57,20.59.86,29.74.29,9.15.47,17.16.57,24.02.09,6.86.14,11.92.14,15.15,0,6.68-1.62,11.54-4.86,14.58-3.24,3.05-9.34,4.58-18.3,4.58Zm-19.16-164.4c-1.72,0-3.05.38-4,1.14-.96.76-2,2.29-3.15,4.58-2.29,4.39-5.24,10.44-8.86,18.16-3.62,7.72-7.25,15.49-10.87,23.3-3.62,7.82-6.77,14.82-9.44,21.02-2.67,6.2-4.2,9.96-4.57,11.29-.19.57-.29,1.24-.29,2,0,1.53.62,2.48,1.86,2.86,1.24.38,3.1.57,5.58.57h28.31c3.24,0,5.67-.33,7.29-1,1.62-.67,2.52-2.14,2.72-4.43,0-3.24.04-8.29.14-15.15.09-6.86.14-14.05.14-21.59s-.05-14.72-.14-21.59c-.1-6.86-.24-12.01-.43-15.44,0-2.29-.34-3.81-1-4.58-.67-.76-1.76-1.14-3.29-1.14Z"/>
      <path class="cls-7" d="m858.66,179.33c0,2.29-.14,4.67-.43,7.15-.29,2.48-.62,5.15-1,8.01l-15.15,97.5c-.76,4.39-2.72,7.34-5.86,8.86-3.15,1.52-7.39,2.29-12.72,2.29-4.39,0-8.39-.53-12.01-1.57-3.62-1.05-5.43-3.29-5.43-6.72v-1.72c0-.57.09-1.33.29-2.29l13.72-84.63c.57-3.05,1-6,1.29-8.86.29-2.86.43-5.15.43-6.86,0-6.67-1.91-11.1-5.72-13.3-3.82-2.19-9.91-3.29-18.3-3.29-4,0-7.01.14-9.01.43-2,.29-3.77.62-5.29,1-2.48.76-4.15,1.86-5,3.29-.86,1.43-1.57,3.57-2.15,6.43l-16.58,106.93c-.76,4.39-2.72,7.34-5.86,8.86-3.15,1.52-7.39,2.29-12.72,2.29-4.39,0-8.34-.53-11.87-1.57-3.53-1.05-5.29-3.29-5.29-6.72v-1.72c0-.57.09-1.33.29-2.29l15.44-97.21c.38-2.1.67-4.1.86-6,.19-1.9.29-3.53.29-4.86,0-3.43-1.62-5.76-4.86-7.01-3.24-1.24-9.06-1.86-17.44-1.86-4,0-7.34.14-10.01.43-2.67.29-4.77.62-6.29,1-2.48.76-4.05,1.86-4.72,3.29-.67,1.43-1.29,3.57-1.86,6.43l-16.58,106.93c-.76,4.39-2.77,7.34-6,8.86-3.24,1.52-7.53,2.29-12.87,2.29-4.39,0-8.34-.53-11.87-1.57-3.53-1.05-5.29-3.29-5.29-6.72v-1.72c0-.57.09-1.33.29-2.29l19.16-122.66c.95-5.72,2.19-9.76,3.72-12.15,1.52-2.38,4.76-4.05,9.72-5,8.01-1.52,15.73-2.72,23.16-3.58,7.43-.86,14.3-1.29,20.59-1.29,8.77,0,16.44.48,23.02,1.43,6.58.96,12.05,2.67,16.44,5.15.57.38,1.29.72,2.14,1,.86.29,1.67.43,2.43.43.95,0,2.19-.29,3.72-.86,8.01-2.86,14.82-4.76,20.44-5.72,5.62-.95,11.2-1.43,16.73-1.43,17.34,0,30.69,2.43,40.03,7.29,9.34,4.86,14.01,13.49,14.01,25.88Z"/>
      <path class="cls-7" d="m957.02,212.21c2.29-.19,4.15-.47,5.58-.86,1.43-.38,2.67-1.04,3.72-2,1.05-.95,1.86-2.29,2.43-4,.57-1.72,1.14-4,1.72-6.86.38-1.52.57-2.95.57-4.29v-3.72c0-2.29-.34-4.48-1-6.58-.67-2.1-1.86-3.86-3.57-5.29-1.72-1.43-4.15-2.57-7.29-3.43-3.15-.86-7.2-1.29-12.15-1.29-6.29,0-12.49.34-18.59,1-6.1.67-11.34,1.48-15.73,2.43-2.86.76-5.1.29-6.72-1.43-1.62-1.72-2.43-4.19-2.43-7.43s.43-6.01,1.29-8.29c.86-2.29,2.62-4.29,5.29-6,4.19-2.67,10.15-4.67,17.87-6.01,7.72-1.33,16.44-2,26.16-2,18.49,0,31.88,2.67,40.17,8.01,8.29,5.34,12.44,14.49,12.44,27.45,0,2.1-.1,4.39-.29,6.86-.19,2.48-.48,5.05-.86,7.72l-14.3,88.64c-1.14,7.43-6.86,12.49-17.16,15.15-10.29,2.67-24.4,4-42.32,4-10.11,0-18.54-.67-25.3-2-6.77-1.33-12.25-3.38-16.44-6.15-4.2-2.76-7.2-6.33-9.01-10.72-1.81-4.38-2.72-9.62-2.72-15.73,0-8.39,1.09-16.34,3.29-23.88,2.19-7.53,5.86-13.48,11.01-17.87,4.19-3.81,9.62-6.67,16.3-8.58,6.67-1.9,14.77-3.33,24.3-4.29l23.73-2.57Zm6.86,33.74c.19-.95.29-2.1.29-3.43,0-3.24-1.1-5.58-3.29-7.01-2.19-1.43-5.86-2.15-11.01-2.15h-12.87c-4.77,0-8.68.53-11.72,1.57-3.05,1.05-5.43,3.1-7.15,6.15-2.1,3.43-3.57,7.53-4.43,12.3-.86,4.77-1.29,9.72-1.29,14.87s1.57,8.2,4.72,9.72c3.15,1.53,9.01,2.29,17.58,2.29,5.33,0,9.62-.14,12.87-.43,3.24-.29,5.76-1.09,7.58-2.43,1.81-1.33,3.15-3.29,4-5.86.86-2.57,1.57-6.05,2.15-10.44l2.57-15.15Z"/>
      <path class="cls-7" d="m1127.14,157.32c0,1.72-.19,3.57-.57,5.58-.38,2-1,3.86-1.86,5.58-.86,1.72-2.05,3.15-3.57,4.29-1.53,1.14-3.34,1.72-5.43,1.72-2.67,0-4.77-.05-6.29-.14-1.53-.09-4-.14-7.43-.14-7.25,0-12.11.72-14.58,2.15-2.48,1.43-4.19,4.72-5.15,9.86l-16.58,105.79c-.76,4.39-2.67,7.34-5.72,8.86-3.05,1.52-7.34,2.29-12.87,2.29-1.91,0-3.91-.1-6-.29-2.1-.19-4-.62-5.72-1.29-1.72-.67-3.1-1.52-4.15-2.57-1.05-1.05-1.57-2.43-1.57-4.15,0-.38.04-.9.14-1.57.09-.67.24-1.47.43-2.43l19.16-123.23c.95-5.15,2.38-8.91,4.29-11.29,1.9-2.38,5.05-4.05,9.44-5,7.05-1.52,14.53-2.76,22.44-3.72,7.91-.95,15.77-1.43,23.59-1.43,7.24,0,12.05.76,14.44,2.29,2.38,1.53,3.57,4.48,3.57,8.86Z"/>
      <path class="cls-7" d="m1199.48,212.21c2.29-.19,4.15-.47,5.58-.86,1.43-.38,2.67-1.04,3.72-2,1.05-.95,1.86-2.29,2.43-4,.57-1.72,1.14-4,1.72-6.86.38-1.52.57-2.95.57-4.29v-3.72c0-2.29-.34-4.48-1-6.58-.67-2.1-1.86-3.86-3.57-5.29-1.72-1.43-4.15-2.57-7.29-3.43-3.15-.86-7.2-1.29-12.15-1.29-6.29,0-12.49.34-18.59,1-6.1.67-11.34,1.48-15.73,2.43-2.86.76-5.1.29-6.72-1.43-1.62-1.72-2.43-4.19-2.43-7.43s.43-6.01,1.29-8.29,2.62-4.29,5.29-6c4.19-2.67,10.15-4.67,17.87-6.01,7.72-1.33,16.44-2,26.16-2,18.49,0,31.88,2.67,40.17,8.01,8.29,5.34,12.44,14.49,12.44,27.45,0,2.1-.1,4.39-.29,6.86-.19,2.48-.48,5.05-.86,7.72l-14.3,88.64c-1.14,7.43-6.86,12.49-17.16,15.15-10.29,2.67-24.4,4-42.32,4-10.11,0-18.54-.67-25.3-2-6.77-1.33-12.25-3.38-16.44-6.15-4.2-2.76-7.2-6.33-9.01-10.72-1.81-4.38-2.72-9.62-2.72-15.73,0-8.39,1.09-16.34,3.29-23.88,2.19-7.53,5.86-13.48,11.01-17.87,4.19-3.81,9.62-6.67,16.3-8.58,6.67-1.9,14.77-3.33,24.3-4.29l23.73-2.57Zm6.86,33.74c.19-.95.29-2.1.29-3.43,0-3.24-1.1-5.58-3.29-7.01-2.19-1.43-5.86-2.15-11.01-2.15h-12.87c-4.77,0-8.68.53-11.72,1.57-3.05,1.05-5.43,3.1-7.15,6.15-2.1,3.43-3.57,7.53-4.43,12.3-.86,4.77-1.29,9.72-1.29,14.87s1.57,8.2,4.72,9.72c3.15,1.53,9.01,2.29,17.58,2.29,5.33,0,9.62-.14,12.87-.43,3.24-.29,5.76-1.09,7.58-2.43,1.81-1.33,3.15-3.29,4-5.86.86-2.57,1.57-6.05,2.15-10.44l2.57-15.15Z"/>
    </g>
    <g class="cls-4">
      <path class="cls-2" d="m590.18,303.13c-4.96,0-8.72-.81-11.29-2.43-2.57-1.62-3.86-4.81-3.86-9.58v-28.59c0-3.81-.57-6.53-1.72-8.15-1.14-1.62-3.62-2.43-7.43-2.43h-43.46c-2.86,0-5.24.67-7.15,2-1.91,1.34-3.82,4-5.72,8.01l-13.72,30.88c-2.1,4.39-4.53,7.2-7.29,8.44-2.77,1.24-6.43,1.86-11.01,1.86-1.91,0-3.86-.19-5.86-.57-2-.38-3.86-1-5.58-1.86s-3.15-2-4.29-3.43c-1.14-1.43-1.72-3.1-1.72-5,0-2.86.53-5.72,1.57-8.58,1.05-2.86,2.34-5.72,3.86-8.58,2.67-5.72,6-12.62,10.01-20.73,4-8.1,8.29-16.77,12.87-26.02,4.58-9.24,9.29-18.77,14.15-28.59,4.86-9.82,9.67-19.44,14.44-28.88,4.76-9.44,9.29-18.39,13.58-26.88,4.29-8.48,8.05-15.87,11.29-22.16,2.86-5.53,7.15-9.77,12.87-12.72,5.72-2.95,13.25-4.43,22.59-4.43,10.67,0,18.34,1.38,23.02,4.15,4.67,2.77,7.29,7.77,7.86,15.01.38,8.2.81,17.4,1.29,27.59.47,10.2.9,20.68,1.29,31.45.38,10.77.71,21.49,1,32.17.29,10.68.57,20.59.86,29.74.29,9.15.47,17.16.57,24.02.09,6.86.14,11.92.14,15.15,0,6.68-1.62,11.54-4.86,14.58-3.24,3.05-9.34,4.58-18.3,4.58Zm-19.16-164.4c-1.72,0-3.05.38-4,1.14-.96.76-2,2.29-3.15,4.58-2.29,4.39-5.24,10.44-8.86,18.16-3.62,7.72-7.25,15.49-10.87,23.3-3.62,7.82-6.77,14.82-9.44,21.02-2.67,6.2-4.2,9.96-4.57,11.29-.19.57-.29,1.24-.29,2,0,1.53.62,2.48,1.86,2.86,1.24.38,3.1.57,5.58.57h28.31c3.24,0,5.67-.33,7.29-1,1.62-.67,2.52-2.14,2.72-4.43,0-3.24.04-8.29.14-15.15.09-6.86.14-14.05.14-21.59s-.05-14.72-.14-21.59c-.1-6.86-.24-12.01-.43-15.44,0-2.29-.34-3.81-1-4.58-.67-.76-1.76-1.14-3.29-1.14Z"/>
      <path class="cls-1" d="m858.66,179.33c0,2.29-.14,4.67-.43,7.15-.29,2.48-.62,5.15-1,8.01l-15.15,97.5c-.76,4.39-2.72,7.34-5.86,8.86-3.15,1.52-7.39,2.29-12.72,2.29-4.39,0-8.39-.53-12.01-1.57-3.62-1.05-5.43-3.29-5.43-6.72v-1.72c0-.57.09-1.33.29-2.29l13.72-84.63c.57-3.05,1-6,1.29-8.86.29-2.86.43-5.15.43-6.86,0-6.67-1.91-11.1-5.72-13.3-3.82-2.19-9.91-3.29-18.3-3.29-4,0-7.01.14-9.01.43-2,.29-3.77.62-5.29,1-2.48.76-4.15,1.86-5,3.29-.86,1.43-1.57,3.57-2.15,6.43l-16.58,106.93c-.76,4.39-2.72,7.34-5.86,8.86-3.15,1.52-7.39,2.29-12.72,2.29-4.39,0-8.34-.53-11.87-1.57-3.53-1.05-5.29-3.29-5.29-6.72v-1.72c0-.57.09-1.33.29-2.29l15.44-97.21c.38-2.1.67-4.1.86-6,.19-1.9.29-3.53.29-4.86,0-3.43-1.62-5.76-4.86-7.01-3.24-1.24-9.06-1.86-17.44-1.86-4,0-7.34.14-10.01.43-2.67.29-4.77.62-6.29,1-2.48.76-4.05,1.86-4.72,3.29-.67,1.43-1.29,3.57-1.86,6.43l-16.58,106.93c-.76,4.39-2.77,7.34-6,8.86-3.24,1.52-7.53,2.29-12.87,2.29-4.39,0-8.34-.53-11.87-1.57-3.53-1.05-5.29-3.29-5.29-6.72v-1.72c0-.57.09-1.33.29-2.29l19.16-122.66c.95-5.72,2.19-9.76,3.72-12.15,1.52-2.38,4.76-4.05,9.72-5,8.01-1.52,15.73-2.72,23.16-3.58,7.43-.86,14.3-1.29,20.59-1.29,8.77,0,16.44.48,23.02,1.43,6.58.96,12.05,2.67,16.44,5.15.57.38,1.29.72,2.14,1,.86.29,1.67.43,2.43.43.95,0,2.19-.29,3.72-.86,8.01-2.86,14.82-4.76,20.44-5.72,5.62-.95,11.2-1.43,16.73-1.43,17.34,0,30.69,2.43,40.03,7.29,9.34,4.86,14.01,13.49,14.01,25.88Z"/>
      <path class="cls-9" d="m957.02,212.21c2.29-.19,4.15-.47,5.58-.86,1.43-.38,2.67-1.04,3.72-2,1.05-.95,1.86-2.29,2.43-4,.57-1.72,1.14-4,1.72-6.86.38-1.52.57-2.95.57-4.29v-3.72c0-2.29-.34-4.48-1-6.58-.67-2.1-1.86-3.86-3.57-5.29-1.72-1.43-4.15-2.57-7.29-3.43-3.15-.86-7.2-1.29-12.15-1.29-6.29,0-12.49.34-18.59,1-6.1.67-11.34,1.48-15.73,2.43-2.86.76-5.1.29-6.72-1.43-1.62-1.72-2.43-4.19-2.43-7.43s.43-6.01,1.29-8.29c.86-2.29,2.62-4.29,5.29-6,4.19-2.67,10.15-4.67,17.87-6.01,7.72-1.33,16.44-2,26.16-2,18.49,0,31.88,2.67,40.17,8.01,8.29,5.34,12.44,14.49,12.44,27.45,0,2.1-.1,4.39-.29,6.86-.19,2.48-.48,5.05-.86,7.72l-14.3,88.64c-1.14,7.43-6.86,12.49-17.16,15.15-10.29,2.67-24.4,4-42.32,4-10.11,0-18.54-.67-25.3-2-6.77-1.33-12.25-3.38-16.44-6.15-4.2-2.76-7.2-6.33-9.01-10.72-1.81-4.38-2.72-9.62-2.72-15.73,0-8.39,1.09-16.34,3.29-23.88,2.19-7.53,5.86-13.48,11.01-17.87,4.19-3.81,9.62-6.67,16.3-8.58,6.67-1.9,14.77-3.33,24.3-4.29l23.73-2.57Zm6.86,33.74c.19-.95.29-2.1.29-3.43,0-3.24-1.1-5.58-3.29-7.01-2.19-1.43-5.86-2.15-11.01-2.15h-12.87c-4.77,0-8.68.53-11.72,1.57-3.05,1.05-5.43,3.1-7.15,6.15-2.1,3.43-3.57,7.53-4.43,12.3-.86,4.77-1.29,9.72-1.29,14.87s1.57,8.2,4.72,9.72c3.15,1.53,9.01,2.29,17.58,2.29,5.33,0,9.62-.14,12.87-.43,3.24-.29,5.76-1.09,7.58-2.43,1.81-1.33,3.15-3.29,4-5.86.86-2.57,1.57-6.05,2.15-10.44l2.57-15.15Z"/>
      <path class="cls-3" d="m1127.14,157.32c0,1.72-.19,3.57-.57,5.58-.38,2-1,3.86-1.86,5.58-.86,1.72-2.05,3.15-3.57,4.29-1.53,1.14-3.34,1.72-5.43,1.72-2.67,0-4.77-.05-6.29-.14-1.53-.09-4-.14-7.43-.14-7.25,0-12.11.72-14.58,2.15-2.48,1.43-4.19,4.72-5.15,9.86l-16.58,105.79c-.76,4.39-2.67,7.34-5.72,8.86-3.05,1.52-7.34,2.29-12.87,2.29-1.91,0-3.91-.1-6-.29-2.1-.19-4-.62-5.72-1.29-1.72-.67-3.1-1.52-4.15-2.57-1.05-1.05-1.57-2.43-1.57-4.15,0-.38.04-.9.14-1.57.09-.67.24-1.47.43-2.43l19.16-123.23c.95-5.15,2.38-8.91,4.29-11.29,1.9-2.38,5.05-4.05,9.44-5,7.05-1.52,14.53-2.76,22.44-3.72,7.91-.95,15.77-1.43,23.59-1.43,7.24,0,12.05.76,14.44,2.29,2.38,1.53,3.57,4.48,3.57,8.86Z"/>
      <path class="cls-8" d="m1199.48,212.21c2.29-.19,4.15-.47,5.58-.86,1.43-.38,2.67-1.04,3.72-2,1.05-.95,1.86-2.29,2.43-4,.57-1.72,1.14-4,1.72-6.86.38-1.52.57-2.95.57-4.29v-3.72c0-2.29-.34-4.48-1-6.58-.67-2.1-1.86-3.86-3.57-5.29-1.72-1.43-4.15-2.57-7.29-3.43-3.15-.86-7.2-1.29-12.15-1.29-6.29,0-12.49.34-18.59,1-6.1.67-11.34,1.48-15.73,2.43-2.86.76-5.1.29-6.72-1.43-1.62-1.72-2.43-4.19-2.43-7.43s.43-6.01,1.29-8.29,2.62-4.29,5.29-6c4.19-2.67,10.15-4.67,17.87-6.01,7.72-1.33,16.44-2,26.16-2,18.49,0,31.88,2.67,40.17,8.01,8.29,5.34,12.44,14.49,12.44,27.45,0,2.1-.1,4.39-.29,6.86-.19,2.48-.48,5.05-.86,7.72l-14.3,88.64c-1.14,7.43-6.86,12.49-17.16,15.15-10.29,2.67-24.4,4-42.32,4-10.11,0-18.54-.67-25.3-2-6.77-1.33-12.25-3.38-16.44-6.15-4.2-2.76-7.2-6.33-9.01-10.72-1.81-4.38-2.72-9.62-2.72-15.73,0-8.39,1.09-16.34,3.29-23.88,2.19-7.53,5.86-13.48,11.01-17.87,4.19-3.81,9.62-6.67,16.3-8.58,6.67-1.9,14.77-3.33,24.3-4.29l23.73-2.57Zm6.86,33.74c.19-.95.29-2.1.29-3.43,0-3.24-1.1-5.58-3.29-7.01-2.19-1.43-5.86-2.15-11.01-2.15h-12.87c-4.77,0-8.68.53-11.72,1.57-3.05,1.05-5.43,3.1-7.15,6.15-2.1,3.43-3.57,7.53-4.43,12.3-.86,4.77-1.29,9.72-1.29,14.87s1.57,8.2,4.72,9.72c3.15,1.53,9.01,2.29,17.58,2.29,5.33,0,9.62-.14,12.87-.43,3.24-.29,5.76-1.09,7.58-2.43,1.81-1.33,3.15-3.29,4-5.86.86-2.57,1.57-6.05,2.15-10.44l2.57-15.15Z"/>
    </g>
    <g class="cls-4">
      <g>
        <path class="cls-7" d="m543.19,338.81c-.91,1.09-1.7,2.59-2.36,4.48-.66,1.89-1.21,3.9-1.64,6.02-.43,2.12-.76,4.21-.99,6.26-.23,2.05-.34,3.76-.34,5.13,0,2.96.6,5.09,1.81,6.36,1.21,1.28,3.23,1.92,6.06,1.92,1.5,0,2.71-.06,3.63-.17.91-.11,1.8-.26,2.67-.44.73-.18,1.3-.06,1.71.38s.62,1.08.62,1.95c0,.96-.11,1.84-.34,2.63-.23.8-.71,1.36-1.44,1.68-2.01,1-5.04,1.51-9.1,1.51-5.29,0-9.1-1.4-11.43-4.21-2.33-2.81-3.49-6.72-3.49-11.73,0-2.1.16-4.44.48-7.01.32-2.58.83-5.13,1.54-7.66.71-2.53,1.63-4.93,2.77-7.18,1.14-2.26,2.51-4.14,4.1-5.65,3.24-2.96,7.41-4.45,12.52-4.45,1.73,0,3.38.13,4.93.38s2.71.6,3.49,1.06c.64.46.96,1.23.96,2.33,0,.46-.06.95-.17,1.47-.11.53-.29.99-.51,1.4-.23.41-.53.74-.89.99-.37.25-.78.33-1.23.24-1.82-.36-3.83-.55-6.02-.55-3.33,0-5.77.96-7.32,2.87Z"/>
        <path class="cls-7" d="m560.23,363.85c0-1.55.09-3.26.27-5.13.18-1.87.5-3.73.96-5.58.46-1.85,1.04-3.62,1.74-5.34.71-1.71,1.58-3.2,2.63-4.48,1.37-1.64,3.06-2.85,5.06-3.63,2.01-.78,4.47-1.16,7.39-1.16,4.79,0,8.24,1.07,10.37,3.22,2.12,2.14,3.18,5.36,3.18,9.65,0,1.5-.08,3.11-.24,4.82-.16,1.71-.42,3.45-.79,5.2-.37,1.76-.84,3.46-1.44,5.1-.59,1.64-1.32,3.12-2.19,4.45-1.41,2.14-3.18,3.6-5.3,4.38-2.12.77-4.73,1.16-7.83,1.16-2.24,0-4.21-.21-5.92-.62-1.71-.41-3.15-1.11-4.31-2.09s-2.05-2.28-2.67-3.9-.92-3.64-.92-6.06Zm19.84,3.49c.55-.96,1.01-2.13,1.4-3.52.39-1.39.71-2.84.96-4.34.25-1.51.44-3.01.58-4.52.14-1.5.21-2.85.21-4.04,0-2.42-.48-4.04-1.44-4.86-.96-.82-2.39-1.23-4.31-1.23-1.32,0-2.41.2-3.25.58-.84.39-1.56,1.09-2.15,2.09-.55,1-1.03,2.2-1.44,3.59-.41,1.39-.75,2.85-1.03,4.38-.27,1.53-.48,3.04-.62,4.55-.14,1.51-.21,2.85-.21,4.04s.11,2.25.34,3.04c.23.8.57,1.41,1.03,1.85.46.43,1.04.73,1.74.89.71.16,1.54.24,2.5.24,1.32,0,2.45-.19,3.39-.58.93-.39,1.7-1.11,2.29-2.16Z"/>
        <path class="cls-7" d="m619.96,341.21c0,.41-.05.85-.14,1.33-.09.48-.24.92-.44,1.33s-.49.75-.86,1.03c-.37.27-.8.41-1.3.41-.64,0-1.14-.01-1.5-.03-.37-.02-.96-.03-1.78-.03-1.73,0-2.9.17-3.49.51-.59.34-1,1.13-1.23,2.36l-3.97,25.31c-.18,1.05-.64,1.76-1.37,2.12-.73.37-1.76.55-3.08.55-.46,0-.94-.02-1.44-.07-.5-.05-.96-.15-1.37-.31s-.74-.36-.99-.61c-.25-.25-.38-.58-.38-.99,0-.09.01-.22.03-.38.02-.16.06-.35.1-.58l4.58-29.49c.23-1.23.57-2.13,1.03-2.7.46-.57,1.21-.97,2.26-1.2,1.69-.36,3.48-.66,5.37-.89,1.89-.23,3.77-.34,5.64-.34,1.73,0,2.88.18,3.46.55.57.37.86,1.07.86,2.12Z"/>
        <path class="cls-7" d="m643.97,341.21c0,.41-.05.85-.14,1.33-.09.48-.24.92-.44,1.33s-.49.75-.86,1.03c-.37.27-.8.41-1.3.41-.64,0-1.14-.01-1.5-.03-.37-.02-.96-.03-1.78-.03-1.73,0-2.9.17-3.49.51-.59.34-1,1.13-1.23,2.36l-3.97,25.31c-.18,1.05-.64,1.76-1.37,2.12-.73.37-1.76.55-3.08.55-.46,0-.94-.02-1.44-.07-.5-.05-.96-.15-1.37-.31s-.74-.36-.99-.61c-.25-.25-.38-.58-.38-.99,0-.09.01-.22.03-.38.02-.16.06-.35.1-.58l4.58-29.49c.23-1.23.57-2.13,1.03-2.7.46-.57,1.21-.97,2.26-1.2,1.69-.36,3.48-.66,5.37-.89,1.89-.23,3.77-.34,5.64-.34,1.73,0,2.88.18,3.46.55.57.37.86,1.07.86,2.12Z"/>
        <path class="cls-7" d="m655.47,360.57c-.64.05-1.14.16-1.51.34-.37.18-.63.41-.79.68-.16.27-.25.61-.27,1.03-.02.41-.03.87-.03,1.37,0,.82.07,1.59.21,2.29.14.71.44,1.33.92,1.88.48.55,1.2.97,2.15,1.27.96.3,2.23.44,3.83.44,1.69,0,3.22-.12,4.58-.38s2.51-.49,3.42-.72c.18-.04.41-.07.68-.07.46,0,.86.16,1.2.48s.51.87.51,1.64c0,1.23-.26,2.21-.79,2.94-.53.73-1.3,1.3-2.33,1.71s-2.27.68-3.73.82c-1.46.14-3.1.21-4.93.21-2.28,0-4.31-.22-6.09-.65-1.78-.43-3.27-1.13-4.48-2.09-1.21-.96-2.12-2.21-2.74-3.76s-.92-3.44-.92-5.68c0-1.05.09-2.46.27-4.24.18-1.78.5-3.81.96-6.09.59-2.92,1.38-5.37,2.36-7.36.98-1.98,2.17-3.57,3.56-4.75,1.39-1.18,3-2.04,4.82-2.57,1.82-.52,3.85-.79,6.09-.79,4.33,0,7.46.84,9.37,2.53,1.92,1.69,2.87,4.24,2.87,7.66,0,2.01-.21,3.71-.62,5.1-.41,1.39-1.08,2.53-2.02,3.42-.94.89-2.14,1.55-3.63,1.98-1.48.43-3.3.72-5.44.85l-7.53.48Zm6.23-16.01c-1.41.04-2.63.37-3.66.96-1.03.59-1.93,1.71-2.7,3.35-.37.91-.65,1.85-.86,2.81-.21.96-.31,1.78-.31,2.46,0,.78.48,1.16,1.44,1.16h4.99c2.19,0,3.79-.46,4.79-1.37,1-.91,1.5-2.62,1.5-5.13,0-1.41-.34-2.47-1.03-3.18-.68-.71-2.08-1.06-4.17-1.06Z"/>
        <path class="cls-7" d="m692.34,347.37c-.64.78-1.2,1.82-1.68,3.15-.48,1.32-.89,2.74-1.23,4.24s-.59,3-.75,4.48c-.16,1.48-.24,2.77-.24,3.87,0,2.32.46,4.05,1.37,5.17.91,1.12,2.6,1.68,5.06,1.68.91,0,1.75-.04,2.53-.14.78-.09,1.46-.2,2.05-.34.55-.14.93,0,1.16.41.23.41.34.84.34,1.3,0,1-.15,1.87-.44,2.6-.3.73-.7,1.21-1.2,1.44-.91.5-1.98.84-3.22,1.03-1.23.18-2.44.27-3.63.27-2.01,0-3.81-.19-5.41-.58-1.6-.39-2.95-1.05-4.07-1.98-1.12-.93-1.98-2.21-2.6-3.83-.62-1.62-.92-3.66-.92-6.12,0-1.55.12-3.31.38-5.27.25-1.96.65-3.91,1.2-5.85.55-1.94,1.25-3.81,2.12-5.61.87-1.8,1.92-3.32,3.15-4.55,1.64-1.73,3.49-2.86,5.54-3.39,2.05-.52,4.2-.79,6.43-.79.91,0,1.88.07,2.91.2,1.03.14,1.88.39,2.57.75.73.46,1.09,1.3,1.09,2.53,0,.91-.22,1.74-.65,2.5-.43.75-1.04,1.08-1.81.99-.78-.09-1.49-.17-2.16-.24-.66-.07-1.33-.1-2.02-.1-1.37,0-2.53.16-3.49.48-.96.32-1.76.89-2.39,1.71Z"/>
        <path class="cls-7" d="m712.59,347.85c.09-.46.14-.8.14-1.03,0-.36-.1-.61-.31-.75-.21-.14-.63-.21-1.27-.21h-2.87c-.59,0-1-.19-1.23-.58-.23-.39-.34-.83-.34-1.33,0-.36.05-.81.14-1.33.09-.52.23-1.04.41-1.54.18-.5.43-.93.75-1.3.32-.36.71-.55,1.16-.55h2.81c.87,0,1.4-.11,1.61-.34s.38-.68.51-1.37l1.37-7.11c.23-1.05.8-1.71,1.71-1.98.91-.27,1.85-.41,2.81-.41,2.64,0,3.97.75,3.97,2.26,0,.09-.01.24-.03.45-.02.21-.06.42-.1.65l-1.16,6.09c-.05.23-.07.43-.07.62v.41c0,.37.12.58.38.65.25.07.69.1,1.33.1h2.74c.59,0,1,.19,1.23.58.23.39.34.83.34,1.33,0,.37-.03.81-.1,1.33-.07.53-.19,1.04-.38,1.54-.18.5-.41.94-.68,1.3s-.64.55-1.1.55h-2.94c-.73,0-1.23.1-1.51.31-.27.21-.48.7-.62,1.47l-2.8,16.97c-.09.41-.17.9-.24,1.47-.07.57-.1,1.02-.1,1.33,0,1.1.24,1.81.72,2.16.48.34,1.31.51,2.5.51h1.3c.68,0,1.12.16,1.3.48.18.32.27.73.27,1.23,0,.91-.14,1.69-.41,2.33s-.64,1.09-1.09,1.37c-.37.23-1.07.46-2.12.68-1.05.23-2.17.34-3.35.34-2.6,0-4.61-.45-6.02-1.33-1.41-.89-2.12-2.43-2.12-4.62,0-.55.03-1.14.1-1.78.07-.64.15-1.3.24-1.98l3.15-18.95Z"/>
        <path class="cls-7" d="m730.59,363.85c0-1.55.09-3.26.27-5.13.18-1.87.5-3.73.96-5.58.46-1.85,1.04-3.62,1.74-5.34.71-1.71,1.58-3.2,2.63-4.48,1.37-1.64,3.06-2.85,5.06-3.63,2.01-.78,4.47-1.16,7.39-1.16,4.79,0,8.24,1.07,10.37,3.22,2.12,2.14,3.18,5.36,3.18,9.65,0,1.5-.08,3.11-.24,4.82-.16,1.71-.42,3.45-.79,5.2-.37,1.76-.84,3.46-1.44,5.1-.59,1.64-1.32,3.12-2.19,4.45-1.41,2.14-3.18,3.6-5.3,4.38-2.12.77-4.73,1.16-7.83,1.16-2.24,0-4.21-.21-5.92-.62-1.71-.41-3.15-1.11-4.31-2.09s-2.05-2.28-2.67-3.9-.92-3.64-.92-6.06Zm19.84,3.49c.55-.96,1.01-2.13,1.4-3.52.39-1.39.71-2.84.96-4.34.25-1.51.44-3.01.58-4.52.14-1.5.21-2.85.21-4.04,0-2.42-.48-4.04-1.44-4.86-.96-.82-2.39-1.23-4.31-1.23-1.32,0-2.41.2-3.25.58-.84.39-1.56,1.09-2.15,2.09-.55,1-1.03,2.2-1.44,3.59-.41,1.39-.75,2.85-1.03,4.38-.27,1.53-.48,3.04-.62,4.55-.14,1.51-.21,2.85-.21,4.04s.11,2.25.34,3.04c.23.8.57,1.41,1.03,1.85.46.43,1.04.73,1.74.89.71.16,1.54.24,2.5.24,1.32,0,2.45-.19,3.39-.58.93-.39,1.7-1.11,2.29-2.16Z"/>
        <path class="cls-7" d="m790.32,341.21c0,.41-.05.85-.14,1.33-.09.48-.24.92-.44,1.33s-.49.75-.86,1.03c-.37.27-.8.41-1.3.41-.64,0-1.14-.01-1.5-.03-.37-.02-.96-.03-1.78-.03-1.73,0-2.9.17-3.49.51-.59.34-1,1.13-1.23,2.36l-3.97,25.31c-.18,1.05-.64,1.76-1.37,2.12-.73.37-1.76.55-3.08.55-.46,0-.94-.02-1.44-.07-.5-.05-.96-.15-1.37-.31s-.74-.36-.99-.61c-.25-.25-.38-.58-.38-.99,0-.09.01-.22.03-.38.02-.16.06-.35.1-.58l4.58-29.49c.23-1.23.57-2.13,1.03-2.7.46-.57,1.21-.97,2.26-1.2,1.69-.36,3.48-.66,5.37-.89,1.89-.23,3.77-.34,5.64-.34,1.73,0,2.88.18,3.46.55.57.37.86,1.07.86,2.12Z"/>
        <path class="cls-7" d="m801.81,360.57c-.64.05-1.14.16-1.51.34-.37.18-.63.41-.79.68-.16.27-.25.61-.27,1.03-.02.41-.03.87-.03,1.37,0,.82.07,1.59.21,2.29.14.71.44,1.33.92,1.88.48.55,1.2.97,2.15,1.27.96.3,2.23.44,3.83.44,1.69,0,3.22-.12,4.58-.38s2.51-.49,3.42-.72c.18-.04.41-.07.68-.07.46,0,.86.16,1.2.48s.51.87.51,1.64c0,1.23-.26,2.21-.79,2.94-.53.73-1.3,1.3-2.33,1.71s-2.27.68-3.73.82c-1.46.14-3.1.21-4.93.21-2.28,0-4.31-.22-6.09-.65-1.78-.43-3.27-1.13-4.48-2.09-1.21-.96-2.12-2.21-2.74-3.76s-.92-3.44-.92-5.68c0-1.05.09-2.46.27-4.24.18-1.78.5-3.81.96-6.09.59-2.92,1.38-5.37,2.36-7.36.98-1.98,2.17-3.57,3.56-4.75,1.39-1.18,3-2.04,4.82-2.57,1.82-.52,3.85-.79,6.09-.79,4.33,0,7.46.84,9.37,2.53,1.92,1.69,2.87,4.24,2.87,7.66,0,2.01-.21,3.71-.62,5.1-.41,1.39-1.08,2.53-2.02,3.42-.94.89-2.14,1.55-3.63,1.98-1.48.43-3.3.72-5.44.85l-7.53.48Zm6.23-16.01c-1.41.04-2.63.37-3.66.96-1.03.59-1.93,1.71-2.7,3.35-.37.91-.65,1.85-.86,2.81-.21.96-.31,1.78-.31,2.46,0,.78.48,1.16,1.44,1.16h4.99c2.19,0,3.79-.46,4.79-1.37,1-.91,1.5-2.62,1.5-5.13,0-1.41-.34-2.47-1.03-3.18-.68-.71-2.08-1.06-4.17-1.06Z"/>
        <path class="cls-7" d="m827.12,349.62c0-2.1.36-3.85,1.1-5.27.73-1.41,1.71-2.55,2.94-3.42,1.23-.87,2.66-1.48,4.28-1.85,1.62-.36,3.32-.55,5.1-.55,1.92,0,3.49.09,4.72.27s2.2.43,2.91.75c.71.32,1.19.72,1.44,1.2.25.48.38.99.38,1.54,0,1.05-.22,1.86-.65,2.43-.43.57-1.15.85-2.16.85-1.23,0-2.29-.04-3.18-.14-.89-.09-1.84-.14-2.84-.14-1.51,0-2.77.31-3.8.92-1.03.62-1.54,1.52-1.54,2.7,0,.91.41,1.82,1.23,2.74.82.91,2.19,2.1,4.11,3.56,2.19,1.64,3.74,3.23,4.65,4.75.91,1.53,1.37,3.25,1.37,5.17,0,2.24-.42,4.08-1.27,5.54-.84,1.46-1.95,2.62-3.32,3.49-1.37.87-2.92,1.47-4.65,1.81-1.73.34-3.49.51-5.27.51-1.19,0-2.34-.03-3.46-.1-1.12-.07-2.11-.23-2.98-.48-.87-.25-1.55-.63-2.05-1.13-.5-.5-.75-1.21-.75-2.12,0-.82.18-1.57.55-2.26.36-.68,1.03-1.03,1.98-1.03s2.02.07,3.04.21c1.03.14,2.18.2,3.46.2.59,0,1.24-.06,1.95-.17.71-.11,1.35-.33,1.92-.65.57-.32,1.05-.73,1.44-1.23.39-.5.58-1.16.58-1.98,0-.91-.37-1.86-1.1-2.84s-2.1-2.27-4.1-3.87c-1.05-.91-1.95-1.74-2.7-2.5-.75-.75-1.37-1.48-1.85-2.19-.48-.71-.85-1.45-1.1-2.22-.25-.78-.38-1.62-.38-2.53Z"/>
        <path class="cls-7" d="m893.01,329.51c.18-1.46.62-2.49,1.3-3.08.68-.59,1.82-.89,3.42-.89.46,0,.92.02,1.4.07.48.05.92.15,1.33.31.41.16.74.38.99.65.25.27.38.62.38,1.03v.31c0,.11-.02.26-.07.45l-6.91,43.65c-.27,1.73-1.59,2.92-3.93,3.56-2.35.64-5.67.96-9.95.96-2.46,0-4.56-.21-6.29-.62-1.73-.41-3.14-1.07-4.21-1.98-1.07-.91-1.85-2.12-2.33-3.63-.48-1.5-.72-3.35-.72-5.54,0-1.41.13-3.2.38-5.37.25-2.17.65-4.37,1.2-6.6.55-2.23,1.27-4.34,2.16-6.33.89-1.98,1.97-3.48,3.25-4.48,1.32-1.05,3.03-1.81,5.13-2.29,2.1-.48,4.77-.72,8.01-.72.87,0,1.57-.03,2.12-.1s.97-.2,1.27-.41c.3-.2.5-.46.62-.75.11-.3.22-.69.31-1.2l1.16-6.98Zm-3.28,21.14c.09-.64.17-1.22.24-1.74.07-.52.1-.97.1-1.33,0-1.18-.31-1.94-.92-2.26s-1.63-.48-3.04-.48-2.69.15-3.69.45c-1,.3-1.8.83-2.39,1.61-.64.82-1.21,2-1.71,3.52-.5,1.53-.91,3.14-1.23,4.82-.32,1.69-.56,3.35-.72,4.99-.16,1.64-.24,3.01-.24,4.11,0,2.32.46,3.88,1.37,4.65.91.78,2.35,1.16,4.31,1.16,1.1,0,1.97-.07,2.63-.21.66-.14,1.17-.38,1.54-.72.36-.34.64-.8.82-1.37.18-.57.34-1.29.48-2.16l2.46-15.05Z"/>
        <path class="cls-7" d="m916.27,360.57c-.64.05-1.14.16-1.51.34-.37.18-.63.41-.79.68-.16.27-.25.61-.27,1.03-.02.41-.03.87-.03,1.37,0,.82.07,1.59.21,2.29.14.71.44,1.33.92,1.88.48.55,1.2.97,2.15,1.27.96.3,2.23.44,3.83.44,1.69,0,3.22-.12,4.58-.38s2.51-.49,3.42-.72c.18-.04.41-.07.68-.07.46,0,.86.16,1.2.48s.51.87.51,1.64c0,1.23-.26,2.21-.79,2.94-.53.73-1.3,1.3-2.33,1.71s-2.27.68-3.73.82c-1.46.14-3.1.21-4.93.21-2.28,0-4.31-.22-6.09-.65-1.78-.43-3.27-1.13-4.48-2.09-1.21-.96-2.12-2.21-2.74-3.76s-.92-3.44-.92-5.68c0-1.05.09-2.46.27-4.24.18-1.78.5-3.81.96-6.09.59-2.92,1.38-5.37,2.36-7.36.98-1.98,2.17-3.57,3.56-4.75,1.39-1.18,3-2.04,4.82-2.57,1.82-.52,3.85-.79,6.09-.79,4.33,0,7.46.84,9.37,2.53,1.92,1.69,2.87,4.24,2.87,7.66,0,2.01-.21,3.71-.62,5.1-.41,1.39-1.08,2.53-2.02,3.42-.94.89-2.14,1.55-3.63,1.98-1.48.43-3.3.72-5.44.85l-7.53.48Zm6.23-16.01c-1.41.04-2.63.37-3.66.96-1.03.59-1.93,1.71-2.7,3.35-.37.91-.65,1.85-.86,2.81-.21.96-.31,1.78-.31,2.46,0,.78.48,1.16,1.44,1.16h4.99c2.19,0,3.79-.46,4.79-1.37,1-.91,1.5-2.62,1.5-5.13,0-1.41-.34-2.47-1.03-3.18-.68-.71-2.08-1.06-4.17-1.06Z"/>
        <path class="cls-7" d="m956.29,342.03c0-2.33.39-4.33,1.16-6.02.78-1.69,1.87-3.08,3.28-4.17,1.41-1.09,3.09-1.9,5.03-2.43,1.94-.52,4.07-.79,6.4-.79,1.78,0,3.37.1,4.79.31,1.41.2,2.53.49,3.35.85.64.32,1.06.71,1.27,1.16.21.46.31,1,.31,1.64,0,1-.27,1.92-.82,2.74-.55.82-1.41,1.16-2.6,1.03-1-.09-1.95-.17-2.84-.24-.89-.07-1.97-.1-3.25-.1-1.96,0-3.59.39-4.89,1.16-1.3.78-1.95,2.14-1.95,4.1,0,.78.12,1.48.38,2.12.25.64.65,1.3,1.2,1.98.55.68,1.24,1.41,2.09,2.19.84.78,1.86,1.71,3.04,2.81,1.28,1.14,2.36,2.21,3.25,3.22.89,1,1.61,1.98,2.16,2.94.55.96.95,1.93,1.2,2.91.25.98.38,2.02.38,3.11,0,2.46-.41,4.59-1.23,6.36-.82,1.78-1.98,3.23-3.49,4.34-1.5,1.12-3.3,1.94-5.37,2.46-2.08.52-4.37.79-6.88.79-1.6,0-3.14-.1-4.62-.31-1.48-.2-2.68-.49-3.59-.85-1.19-.55-1.78-1.53-1.78-2.94,0-.41.04-.87.14-1.37.09-.5.25-.96.48-1.37.23-.41.52-.74.89-.99.36-.25.84-.33,1.44-.24,1.09.18,2.28.33,3.56.44,1.28.11,2.51.17,3.69.17,1.09,0,2.1-.09,3.01-.27.91-.18,1.7-.5,2.36-.96.66-.46,1.17-1.06,1.54-1.81.36-.75.55-1.7.55-2.84,0-.73-.11-1.41-.34-2.05-.23-.64-.6-1.3-1.13-1.98-.52-.68-1.21-1.45-2.05-2.29-.84-.84-1.9-1.81-3.18-2.91s-2.35-2.12-3.21-3.08c-.87-.96-1.57-1.91-2.12-2.87-.55-.96-.95-1.91-1.2-2.87-.25-.96-.38-1.98-.38-3.08Z"/>
        <path class="cls-7" d="m996.59,360.57c-.64.05-1.14.16-1.51.34-.37.18-.63.41-.79.68-.16.27-.25.61-.27,1.03-.02.41-.03.87-.03,1.37,0,.82.07,1.59.21,2.29.14.71.44,1.33.92,1.88.48.55,1.2.97,2.15,1.27.96.3,2.23.44,3.83.44,1.69,0,3.22-.12,4.58-.38s2.51-.49,3.42-.72c.18-.04.41-.07.68-.07.46,0,.86.16,1.2.48s.51.87.51,1.64c0,1.23-.26,2.21-.79,2.94-.53.73-1.3,1.3-2.33,1.71s-2.27.68-3.73.82c-1.46.14-3.1.21-4.93.21-2.28,0-4.31-.22-6.09-.65-1.78-.43-3.27-1.13-4.48-2.09-1.21-.96-2.12-2.21-2.74-3.76s-.92-3.44-.92-5.68c0-1.05.09-2.46.27-4.24.18-1.78.5-3.81.96-6.09.59-2.92,1.38-5.37,2.36-7.36.98-1.98,2.17-3.57,3.56-4.75,1.39-1.18,3-2.04,4.82-2.57,1.82-.52,3.85-.79,6.09-.79,4.33,0,7.46.84,9.37,2.53,1.92,1.69,2.87,4.24,2.87,7.66,0,2.01-.21,3.71-.62,5.1-.41,1.39-1.08,2.53-2.02,3.42-.94.89-2.14,1.55-3.63,1.98-1.48.43-3.3.72-5.44.85l-7.53.48Zm6.23-16.01c-1.41.04-2.63.37-3.66.96-1.03.59-1.93,1.71-2.7,3.35-.37.91-.65,1.85-.86,2.81-.21.96-.31,1.78-.31,2.46,0,.78.48,1.16,1.44,1.16h4.99c2.19,0,3.79-.46,4.79-1.37,1-.91,1.5-2.62,1.5-5.13,0-1.41-.34-2.47-1.03-3.18-.68-.71-2.08-1.06-4.17-1.06Z"/>
        <path class="cls-7" d="m1038.12,377.06c.18-.5.32-1.06.41-1.68.09-.61.14-1.04.14-1.26,0-.41-.13-.67-.38-.79-.25-.11-.74-.17-1.47-.17-.5,0-1.13.05-1.88.14-.75.09-1.79.14-3.11.14-4.01,0-6.94-.72-8.79-2.16-1.85-1.44-2.77-4-2.77-7.7,0-1.51.13-3.23.38-5.17.25-1.94.64-3.89,1.16-5.85.52-1.96,1.21-3.82,2.05-5.58.84-1.75,1.86-3.23,3.04-4.41,1.5-1.51,3.36-2.55,5.58-3.15,2.21-.59,4.94-.89,8.18-.89,2.14,0,3.96.05,5.44.14,1.48.09,2.69.26,3.63.51.93.25,1.61.59,2.02,1.03s.62.99.62,1.68v.45c0,.16-.02.35-.07.58l-4.86,30.45-.62,3.42c-.55,2.65-1.41,4.71-2.6,6.19-1.19,1.48-2.59,2.6-4.21,3.35-1.62.75-3.41,1.22-5.37,1.4-1.96.18-3.99.27-6.09.27-1.28,0-2.54-.03-3.8-.1-1.25-.07-2.37-.23-3.35-.48-.98-.25-1.78-.61-2.39-1.1-.62-.48-.92-1.13-.92-1.95,0-.91.19-1.76.58-2.53.39-.78,1.06-1.12,2.02-1.03,1.51.18,2.9.32,4.17.41,1.28.09,2.53.14,3.76.14,3.06,0,5.29-.31,6.7-.92,1.41-.62,2.35-1.74,2.81-3.39Zm4.65-28.12c.04-.32.09-.65.14-.99.04-.34.07-.63.07-.86,0-1-.33-1.67-.99-1.98s-1.77-.48-3.32-.48c-.91,0-1.74.07-2.5.2-.75.14-1.4.39-1.95.75-.87.64-1.62,1.64-2.26,3.01-.64,1.37-1.17,2.87-1.61,4.52-.43,1.64-.76,3.32-.99,5.03-.23,1.71-.34,3.23-.34,4.55,0,1.87.39,3.17,1.16,3.9.78.73,2.12,1.1,4.04,1.1,1.14,0,2.09-.09,2.84-.27.75-.18,1.36-.49,1.81-.92.46-.43.81-1,1.06-1.71.25-.71.47-1.58.65-2.63l2.19-13.2Z"/>
        <path class="cls-7" d="m1085.8,371.31c-.23,1.32-.51,2.28-.86,2.87-.34.59-1.08,1-2.22,1.23-1.55.37-3.25.64-5.1.82-1.85.18-3.8.27-5.85.27-2.69,0-4.89-.21-6.6-.62-1.71-.41-3.06-1.01-4.04-1.81-.98-.8-1.67-1.74-2.05-2.84-.39-1.1-.58-2.33-.58-3.69,0-.55.03-1.16.1-1.85.07-.68.15-1.34.24-1.98l3.42-22.1c.18-1.05.67-1.76,1.47-2.12.8-.36,1.84-.55,3.11-.55,1.05,0,1.98.13,2.81.38.82.25,1.23.81,1.23,1.68v.34c0,.14-.02.32-.07.55l-3.28,20.53c-.09.64-.17,1.29-.24,1.95-.07.66-.1,1.2-.1,1.61,0,1.69.41,2.77,1.23,3.25s2.19.72,4.1.72c1.05,0,1.9-.02,2.57-.07.66-.04,1.17-.16,1.54-.34.36-.18.64-.44.82-.79.18-.34.32-.81.41-1.4l4.04-25.72c.18-1.05.66-1.76,1.44-2.12.77-.36,1.8-.55,3.08-.55,1.09,0,2.05.13,2.87.38.82.25,1.23.81,1.23,1.68v.34c0,.14-.02.32-.07.55l-4.65,29.42Z"/>
        <path class="cls-7" d="m1119.12,341.21c0,.41-.05.85-.14,1.33-.09.48-.24.92-.44,1.33s-.49.75-.86,1.03c-.37.27-.8.41-1.3.41-.64,0-1.14-.01-1.5-.03-.37-.02-.96-.03-1.78-.03-1.73,0-2.9.17-3.49.51-.59.34-1,1.13-1.23,2.36l-3.97,25.31c-.18,1.05-.64,1.76-1.37,2.12-.73.37-1.76.55-3.08.55-.46,0-.94-.02-1.44-.07-.5-.05-.96-.15-1.37-.31s-.74-.36-.99-.61c-.25-.25-.38-.58-.38-.99,0-.09.01-.22.03-.38.02-.16.06-.35.1-.58l4.58-29.49c.23-1.23.57-2.13,1.03-2.7.46-.57,1.21-.97,2.26-1.2,1.69-.36,3.48-.66,5.37-.89,1.89-.23,3.77-.34,5.64-.34,1.73,0,2.88.18,3.46.55.57.37.86,1.07.86,2.12Z"/>
        <path class="cls-7" d="m1119.53,363.85c0-1.55.09-3.26.27-5.13.18-1.87.5-3.73.96-5.58.46-1.85,1.04-3.62,1.74-5.34.71-1.71,1.58-3.2,2.63-4.48,1.37-1.64,3.06-2.85,5.06-3.63,2.01-.78,4.47-1.16,7.39-1.16,4.79,0,8.24,1.07,10.37,3.22,2.12,2.14,3.18,5.36,3.18,9.65,0,1.5-.08,3.11-.24,4.82-.16,1.71-.42,3.45-.79,5.2-.37,1.76-.84,3.46-1.44,5.1-.59,1.64-1.32,3.12-2.19,4.45-1.41,2.14-3.18,3.6-5.3,4.38-2.12.77-4.73,1.16-7.83,1.16-2.24,0-4.21-.21-5.92-.62-1.71-.41-3.15-1.11-4.31-2.09s-2.05-2.28-2.67-3.9-.92-3.64-.92-6.06Zm19.84,3.49c.55-.96,1.01-2.13,1.4-3.52.39-1.39.71-2.84.96-4.34.25-1.51.44-3.01.58-4.52.14-1.5.21-2.85.21-4.04,0-2.42-.48-4.04-1.44-4.86-.96-.82-2.39-1.23-4.31-1.23-1.32,0-2.41.2-3.25.58-.84.39-1.56,1.09-2.15,2.09-.55,1-1.03,2.2-1.44,3.59-.41,1.39-.75,2.85-1.03,4.38-.27,1.53-.48,3.04-.62,4.55-.14,1.51-.21,2.85-.21,4.04s.11,2.25.34,3.04c.23.8.57,1.41,1.03,1.85.46.43,1.04.73,1.74.89.71.16,1.54.24,2.5.24,1.32,0,2.45-.19,3.39-.58.93-.39,1.7-1.11,2.29-2.16Z"/>
        <path class="cls-7" d="m1157.91,349.62c0-2.1.36-3.85,1.1-5.27.73-1.41,1.71-2.55,2.94-3.42,1.23-.87,2.66-1.48,4.28-1.85,1.62-.36,3.32-.55,5.1-.55,1.92,0,3.49.09,4.72.27s2.2.43,2.91.75c.71.32,1.19.72,1.44,1.2.25.48.38.99.38,1.54,0,1.05-.22,1.86-.65,2.43-.43.57-1.15.85-2.16.85-1.23,0-2.29-.04-3.18-.14-.89-.09-1.84-.14-2.84-.14-1.51,0-2.77.31-3.8.92-1.03.62-1.54,1.52-1.54,2.7,0,.91.41,1.82,1.23,2.74.82.91,2.19,2.1,4.11,3.56,2.19,1.64,3.74,3.23,4.65,4.75.91,1.53,1.37,3.25,1.37,5.17,0,2.24-.42,4.08-1.27,5.54-.84,1.46-1.95,2.62-3.32,3.49-1.37.87-2.92,1.47-4.65,1.81-1.73.34-3.49.51-5.27.51-1.19,0-2.34-.03-3.46-.1-1.12-.07-2.11-.23-2.98-.48-.87-.25-1.55-.63-2.05-1.13-.5-.5-.75-1.21-.75-2.12,0-.82.18-1.57.55-2.26.36-.68,1.03-1.03,1.98-1.03s2.02.07,3.04.21c1.03.14,2.18.2,3.46.2.59,0,1.24-.06,1.95-.17.71-.11,1.35-.33,1.92-.65.57-.32,1.05-.73,1.44-1.23.39-.5.58-1.16.58-1.98,0-.91-.37-1.86-1.1-2.84s-2.1-2.27-4.1-3.87c-1.05-.91-1.95-1.74-2.7-2.5-.75-.75-1.37-1.48-1.85-2.19-.48-.71-.85-1.45-1.1-2.22-.25-.78-.38-1.62-.38-2.53Z"/>
      </g>
    </g>
  </g>
</svg>